<svg width="82" height="82" viewBox="0 0 82 82" fill="none" xmlns="http://www.w3.org/2000/svg">
<g clip-path="url(#clip0)">
<path d="M47.6509 2.51906L4.34969 27.519C1.92475 28.9191 1.11951 31.9243 2.51955 34.3492L27.5196 77.6505C28.9196 80.0753 31.9248 80.8806 34.3497 79.4805L54.2683 67.9805L64.6606 61.9805L77.651 54.4805C80.0758 53.0805 80.8811 50.0753 79.481 47.6504L54.4811 4.3492C53.081 1.92427 50.0758 1.11902 47.6509 2.51906ZM55.0003 65.2485L45.0003 47.928L38.0721 51.9281L34.0721 44.9998L41.0003 40.9998L37.5003 34.9377C34.6503 30.0013 36.0609 23.6444 40.6605 20.4114L48.4547 15.9114L52.4548 22.8396L45.5265 26.8396C44.0542 27.6896 43.5784 29.4654 44.4284 30.9377L47.9284 36.9998L56.5887 31.9998L60.5888 38.928L51.9285 43.928L61.9286 61.2486L55.0003 65.2486L55.0003 65.2485ZM77.749 48.6504C78.599 50.1227 78.1232 51.8985 76.6509 52.7485L63.6605 60.2485L54.6605 44.66L63.3207 39.6601L57.3207 29.2678L48.6605 34.2677L46.1605 29.9376C45.8605 29.418 46.0069 28.8716 46.5265 28.5716L55.1868 23.5716L49.1868 13.1793L39.5739 18.7293C34.0716 22.5989 32.4182 30.1352 35.7682 35.9376L38.2682 40.2677L31.34 44.2678L37.34 54.6601L44.2682 50.66L53.2682 66.2485L33.3497 77.7485C31.8774 78.5985 30.1016 78.1227 29.2516 76.6504L4.25164 33.3492C3.40162 31.8769 3.87743 30.1011 5.34971 29.2511L48.651 4.25109C50.1233 3.40107 51.8991 3.87689 52.7491 5.34917L77.7491 48.6504L77.749 48.6504Z" fill="#737BCA"/>
</g>
<defs>
<clipPath id="clip0">
<rect width="60" height="60" fill="white" transform="translate(0.0195312 30.019) rotate(-30)"/>
</clipPath>
</defs>
</svg>
    