<svg width="60" height="60" viewBox="0 0 60 60" fill="none" xmlns="http://www.w3.org/2000/svg">
<g clip-path="url(#clip0)">
<path d="M33.5999 43.2997C32.7999 43.4997 31.5999 43.8997 30.0999 43.8997C27.4 43.8997 24.8 43.1997 22.5999 41.6996C20.3999 40.1997 18.7 38.2996 17.4999 35.8997L4.69996 13.4998L3.79998 14.9997C1.29994 19.4998 0 24.4997 0 29.9997C0 37.4997 2.50004 44.0997 7.29996 49.6997C12.1 55.1996 18.2999 58.5997 25.4999 59.6996L26.1999 59.7995L36.2999 42.4995L33.5999 43.2997ZM25.0999 57.4997C18.6999 56.3996 13.1999 53.2997 8.79993 48.2996C4.29989 43.0997 2.00001 36.9997 2.00001 29.9997C2.00001 25.4997 2.89999 21.2997 4.69996 17.5997L15.4999 36.7996C16.7998 39.3996 18.6999 41.5997 21.2999 43.2996C23.8999 44.8996 26.7999 45.7996 29.8999 45.7996C30.6999 45.7996 31.3999 45.6996 31.9999 45.5996L25.0999 57.4997Z" fill="#FFE7A2"/>
<path d="M16.5003 26.3C17.2002 23.3 18.9003 20.8 21.5003 18.8C23.9002 16.8999 26.7002 15.9999 30.0002 15.9999H56.6001L55.7002 14.5C53.2001 10.2 49.7001 6.79993 44.9002 4.00001C40.4002 1.29994 35.4002 0 30.0002 0C25.4002 0 20.9003 0.999944 16.9002 2.99995C12.6002 5.09992 8.90022 8.09999 6.30034 11.6L5.90039 12.1L15.9003 28.4999L16.5003 26.3ZM8.30035 12.2999C10.7003 9.19989 13.9003 6.69997 17.8004 4.79992C21.5004 2.89987 25.6003 1.99989 30.0003 1.99989C35.0003 1.99989 39.7002 3.29983 43.8002 5.79986C47.8002 8.09987 50.7002 10.7998 53.0002 14.0999H29.9002C26.2002 14.0999 23.0002 15.0998 20.2003 17.2999C17.9003 19.0998 16.2003 21.1998 15.2004 23.6998L8.30035 12.2999Z" fill="#FFE7A2"/>
<path d="M57.7996 18.7001L57.4996 18.1001H37.5996L39.2996 19.8001C42.2995 22.8001 43.8996 26.4001 43.8996 30.0001C43.8996 32.9001 43.0996 35.6 41.3996 38.0001L28.5996 60H30.2996C38.4996 59.9001 45.4995 56.9 51.2995 51.1C57.0995 45.3001 59.9995 38.2001 59.9995 30.0001C59.9996 27.0001 59.5995 22.7001 57.7996 18.7001ZM49.8996 49.7C44.8997 54.7 38.9996 57.4001 32.0997 57.9L42.9997 39.1C44.8998 36.3 45.7998 33.3 45.7998 30.0001C45.7998 26.5001 44.5998 23.1001 42.1998 20.1001H56.1998C57.6997 23.6001 57.9997 27.4001 57.9997 30.0001C57.9996 37.6 55.2995 44.2 49.8996 49.7Z" fill="#FFE7A2"/>
<path d="M18 29.9997C18 36.4996 23.5 41.9996 29.9999 41.9996C36.4999 41.9996 41.9998 36.4996 41.9998 29.9997C41.9998 23.4997 36.4999 17.9998 29.9999 17.9998C23.5 17.9998 18 23.4997 18 29.9997ZM29.9999 19.9998C35.4 19.9998 39.9998 24.5998 39.9998 29.9997C39.9998 35.3996 35.3998 39.9996 29.9999 39.9996C24.6 39.9996 20 35.3996 20 29.9997C20 24.5998 24.6 19.9998 29.9999 19.9998Z" fill="#FFE7A2"/>
</g>
<defs>
<clipPath id="clip0">
<rect width="60" height="60" fill="white"/>
</clipPath>
</defs>
</svg>
