<svg width="82" height="82" viewBox="0 0 82 82" fill="none" xmlns="http://www.w3.org/2000/svg">
<g clip-path="url(#clip0)">
<path d="M37.1525 8.55L14.809 21.45C6.66843 26.15 3.85002 36.6684 8.55 44.809L21.45 67.1525C26.15 75.2931 36.6684 78.1115 44.809 73.4115L67.1525 60.5115C75.2931 55.8115 78.1115 45.2931 73.4115 37.1525L60.5115 14.809C55.8115 6.66843 45.2931 3.85002 37.1525 8.55ZM71.6794 38.1525C75.8295 45.3406 73.3404 54.6295 66.1525 58.7794L43.809 71.6794C36.621 75.8295 27.332 73.3404 23.1821 66.1525L10.2821 43.809C6.13206 36.621 8.62111 27.332 15.8091 23.1821L38.1525 10.2821C45.3406 6.13207 54.6295 8.62111 58.7794 15.8091L71.6794 38.1525Z" fill="#E69CFC"/>
<path d="M40.1526 13.7463L17.8092 26.6463C12.5264 29.6963 10.6963 36.5264 13.7463 41.8092L26.6463 64.1526C29.6963 69.4353 36.5264 71.2655 41.8092 68.2155L64.1526 55.3155C69.4353 52.2655 71.2655 45.4353 68.2155 40.1526L55.3155 17.8092C52.2655 12.5265 45.4353 10.6963 40.1526 13.7463ZM66.4834 41.1526C68.9834 45.4828 67.4827 51.0835 63.1526 53.5834L40.8091 66.4834C36.479 68.9834 30.8783 67.4827 28.3784 63.1526L15.4784 40.8092C12.9784 36.479 14.4791 30.8783 18.8092 28.3784L41.1526 15.4784C45.4828 12.9784 51.0835 14.4791 53.5834 18.8092L66.4834 41.1526Z" fill="#E69CFC"/>
<path d="M32.9806 27.1245C25.3597 31.5245 22.7243 41.3599 27.1242 48.9809C31.5242 56.6019 41.3596 59.2373 48.9806 54.8373C56.6016 50.4373 59.237 40.6019 54.837 32.9809C50.437 25.3599 40.6016 22.7245 32.9806 27.1245ZM47.9806 53.1053C41.3122 56.9553 32.7062 54.6493 28.8562 47.9809C25.0062 41.3125 27.3122 32.7065 33.9806 28.8565C40.649 25.0065 49.255 27.3125 53.105 33.9809C56.955 40.6493 54.6491 49.2553 47.9806 53.1053Z" fill="#E69CFC"/>
<path d="M35.4807 31.4546C30.1979 34.5046 28.4043 41.1981 31.4544 46.4809C34.5043 51.7636 41.1979 53.5572 46.4807 50.5072C51.7635 47.4572 53.557 40.7637 50.507 35.4809C47.457 30.198 40.7634 28.4046 35.4807 31.4546ZM45.4807 48.7751C41.1505 51.2751 35.6865 49.811 33.1865 45.4809C30.6864 41.1507 32.1505 35.6867 36.4807 33.1867C40.8108 30.6866 46.2749 32.1507 48.7749 36.4809C51.2749 40.811 49.8108 46.2751 45.4807 48.7751Z" fill="#E69CFC"/>
<path d="M45.3371 16.5264C43.8648 17.3764 43.389 19.1522 44.239 20.6244C45.089 22.0967 46.8648 22.5725 48.3371 21.7225C49.8094 20.8725 50.2852 19.0967 49.4352 17.6244C48.5851 16.1522 46.8094 15.6763 45.3371 16.5264Z" fill="#E69CFC"/>
</g>
<defs>
<clipPath id="clip0">
<rect width="60" height="60" fill="white" transform="translate(0 30.019) rotate(-30)"/>
</clipPath>
</defs>
</svg>
