<svg width="61" height="60" viewBox="0 0 61 60" fill="none" xmlns="http://www.w3.org/2000/svg">
<g clip-path="url(#clip0)">
<path d="M8.23065 0.5C5.9952 0.5 3.9629 1.30004 2.43871 2.80004C0.812943 4.4 0 6.39992 0 8.49992C0 10.6999 0.914516 12.6999 2.43871 14.1999C3.9629 15.6999 6.09677 16.5999 8.12907 16.5C8.12907 16.5 8.23065 16.5 8.33234 16.5C10.3646 16.5 12.2952 15.6999 13.8194 14.1999C15.3436 12.6999 16.2581 10.6999 16.2581 8.49992C16.3597 6.39992 15.4452 4.39988 13.921 2.89988C12.3968 1.29992 10.3645 0.5 8.23065 0.5ZM12.3968 12.8C11.279 13.9 9.75484 14.6 8.12907 14.5C6.60488 14.5 4.97911 13.9 3.86133 12.8C2.64198 11.7 2.0323 10.1 2.0323 8.50004C2.0323 6.90008 2.64198 5.40008 3.86133 4.20008C4.97911 3.10004 6.50331 2.50004 8.23065 2.50004C9.75484 2.50004 11.279 3.10004 12.3968 4.20008C13.6162 5.40008 14.2258 6.90008 14.2258 8.50004C14.2258 10.1 13.6162 11.7 12.3968 12.8Z" fill="#C373CA"/>
<path d="M12.1936 18.5H3.96293C2.33716 18.5 1.01611 19.8 1.01611 21.5V56.5C1.01611 58.1 2.43873 59.5 4.0645 59.5H12.1936C13.8193 59.5 15.242 58.1 15.242 56.6V21.5C15.242 19.8999 13.8193 18.5 12.1936 18.5ZM13.2097 56.6C13.2097 57.1 12.7016 57.5 12.1936 57.5H4.0645C3.5564 57.5 3.04841 57 3.04841 56.5V21.5C3.04841 21 3.45482 20.5 3.96293 20.5H12.1936C12.7017 20.5 13.2097 21.0001 13.2097 21.5V56.6Z" fill="#C373CA"/>
<path d="M46.7417 17.4998H44.6078C40.6449 17.4998 36.8853 19.1998 34.4465 21.8998V20.4998C34.4465 19.4998 33.4305 18.4997 32.4143 18.4997H22.253C21.3385 18.4997 20.2207 19.2998 20.2207 20.3997V57.6996C20.2207 58.7997 21.3385 59.4996 22.253 59.4996H33.4305C34.345 59.4996 35.4628 58.7997 35.4628 57.6996V36.0996C35.4628 32.7996 37.9015 30.1996 41.0514 30.1996C42.6772 30.1996 44.2014 30.7996 45.3192 31.8996C46.3353 32.7996 46.7418 34.1997 46.7418 35.9997V57.4997C46.7418 58.4997 47.7579 59.4997 48.7741 59.4997H58.9353C59.9514 59.4997 60.9676 58.4998 60.9676 57.4997V31.6997C60.9675 23.6998 54.7692 17.4998 46.7417 17.4998ZM58.9352 57.3997L58.8336 57.4997H48.8755L48.774 35.9998C48.774 33.5998 48.1643 31.7998 46.8434 30.4998C45.3192 28.9998 43.2869 28.1998 41.153 28.1998C36.8853 28.2998 33.532 31.6998 33.532 36.0998V57.4997H22.3546V20.4998H32.4143L32.5158 20.5997V26.8997L35.2594 24.1997L35.3609 24.0998C37.3932 21.2998 40.9496 19.4998 44.7094 19.4998H46.8432C53.6513 19.4998 58.9352 24.8998 58.9352 31.6998V57.3997Z" fill="#C373CA"/>
</g>
<defs>
<clipPath id="clip0">
<rect width="60.9677" height="60" fill="white"/>
</clipPath>
</defs>
</svg>
