<svg width="74" height="66" viewBox="0 0 74 66" fill="none" xmlns="http://www.w3.org/2000/svg">
<path d="M61.0741 6.04033C60.6881 5.81745 60.1534 5.85191 59.7745 6.06225L57.9349 7.31671C58.7722 5.56939 59.1762 3.82935 59.3029 2.27241C59.37 1.71051 59.1597 1.33174 58.7735 1.10879C58.3875 0.885913 57.8528 0.920374 57.5011 1.23211C54.9855 3.21163 52.8216 4.87932 50.9547 6.03215C50.9819 6.13367 50.8532 6.05935 50.7517 6.08656C48.8829 5.60824 44.3806 4.63893 41.5387 5.40042C34.3594 7.43289 30.2059 15.073 32.1912 22.4823L32.3 22.8883C21.2002 23.6868 14.599 22.192 6.53827 17.2808L5.25156 16.5377L4.96891 17.9189C3.28576 25.441 7.32628 30.7767 12.3726 33.776C10.4641 33.961 9.08284 33.6784 7.72157 33.0641C7.23403 32.8684 6.69933 32.9029 6.27341 33.3433C5.92185 33.6551 5.88196 34.3184 6.11946 34.7987C8.81863 39.1883 13.4046 42.0935 17.887 43.3945C16.06 43.884 14.4832 44.0889 12.6887 43.4818C12.2283 43.3876 11.6193 43.5508 11.295 43.9641C10.9706 44.3774 10.9035 44.9392 11.2425 45.3923C14.4565 50.0792 18.7432 51.8678 24.6176 51.0553C22.1365 53.5695 18.6603 56.0239 12.6991 57.73C12.0901 57.8932 11.6914 58.4352 11.6245 58.997C11.5846 59.6604 11.9236 60.1135 12.4384 60.4107C16.881 62.3751 25.4632 61.9249 35.5115 59.2325C53.3751 54.4459 63.7211 34.5944 58.4722 15.0053L58.3906 14.7008C60.3245 12.986 61.5803 10.3649 61.705 7.17675C61.6976 6.74349 61.4601 6.2632 61.0741 6.04033ZM56.5344 13.4575L55.9797 13.8237L56.4421 15.5492C61.3918 34.0219 51.7146 52.7152 34.9674 57.2025C25.7311 59.6774 19.1318 59.8139 15.3472 59.0874C22.2146 56.7033 25.6762 53.3825 28.17 50.1034L30.2179 47.5966L27.173 48.4125C21.3876 49.9627 17.4 49.2905 14.3366 45.9776C16.3267 46.097 18.2552 45.5803 20.3595 44.9077C21.1442 44.5886 21.9563 44.371 22.7682 44.1534L22.5287 42.0419C18.3727 41.9588 12.8806 39.7317 9.39653 35.6612C11.6713 36.0308 13.9586 35.6355 15.9885 35.0916L19.135 34.2485L16.1081 33.1013C13.5687 32.15 5.83443 28.4568 6.81245 19.9269C15.0217 24.5807 22.0018 25.8652 33.7105 24.9036L34.9829 24.7803L34.2214 21.9383C32.5353 15.6455 36.0201 9.16363 42.0828 7.43032C44.3901 6.7033 48.8182 7.80131 50.0978 8.11119C50.7884 8.25245 51.4246 8.19079 51.9791 7.8247C53.3656 6.90926 55.0021 5.7092 56.8146 4.35333C56.309 6.12057 55.4718 7.8679 54.2014 9.62257C53.877 10.0358 53.9387 10.672 54.2777 11.1251C54.6168 11.5782 55.2801 11.6181 55.7332 11.2791L59.338 8.89897C58.981 10.4087 58.2724 12.2303 56.5344 13.4575Z" fill="#1ECAE9"/>
</svg>
