<svg width="62" height="62" viewBox="0 0 62 62" fill="none" xmlns="http://www.w3.org/2000/svg">
<path d="M31.1026 0C14.1656 0 0.41055 13.7549 0.41055 30.5895C0.41055 35.9272 1.84766 41.0596 4.51654 45.7815L0 62L16.5264 57.5861C21.3509 60.1523 26.3807 61.5893 31.1026 61.5893C47.8344 61.5893 62 47.4237 62 30.5893C62 13.7549 48.1423 0 31.1026 0ZM31.1026 59.5365C26.5861 59.5365 21.7616 58.0993 17.1423 55.5332L16.7318 55.3279L2.87422 59.1258L6.67214 45.4736L6.4668 45.063C3.90053 40.6491 2.46354 35.6193 2.46354 30.5895C2.46354 14.8841 15.2947 2.05299 31.1026 2.05299C47.0132 2.05299 59.947 14.8841 59.947 30.5895C59.947 46.2948 46.7053 59.5365 31.1026 59.5365Z" fill="#2DE300"/>
<path d="M31.1026 5.13257C17.0397 5.13257 5.54297 16.5266 5.54297 30.5895C5.54297 35.6193 6.98008 40.3412 9.54623 44.5498L9.95678 45.063L7.18541 54.8147L17.245 52.2485L17.7583 52.5564C21.9669 55.1227 26.5862 56.457 31.1027 56.457C45.2683 56.457 56.8676 44.8577 56.8676 30.5895C56.8676 16.5266 45.2682 5.13257 31.1026 5.13257ZM31 54.5068C26.894 54.5068 22.6854 53.1724 18.7848 50.8115L17.553 49.9902L10.0596 51.8379L12.1126 44.6525L11.2914 43.3181C8.82786 39.5201 7.59608 35.1061 7.59608 30.5896C7.59608 17.7585 18.1689 7.18568 31.1027 7.18568C44.1392 7.18568 54.8147 17.7585 54.8147 30.5896C54.8146 43.7287 44.1391 54.404 31 54.5068Z" fill="#2DE300"/>
<path d="M46.5001 36.2352L40.0332 33.2584C39.1093 32.8478 38.1855 33.1558 37.5696 33.8743L35.1061 37.0564C33.2584 36.3379 28.126 34.0796 25.1492 28.5365L27.4075 25.8676C27.9208 25.2517 28.0234 24.4305 27.7155 23.712L24.944 17.1425C24.636 16.424 24.0201 15.9107 23.1989 15.9107L21.2485 15.8081C20.4273 15.8081 19.5035 16.0134 18.8876 16.6293C17.9638 17.4506 16.2187 19.1956 15.7054 21.5565C14.9869 24.9439 16.116 28.9473 18.9902 32.8479C20.7353 35.3115 26.073 42.5996 36.3379 45.4737C37.3643 45.7817 38.3909 45.8843 39.3147 45.8843C41.0597 45.8843 42.7021 45.371 44.1392 44.5499C45.7816 43.5235 46.9107 41.7784 47.3213 39.9306L47.6293 38.4935C47.8345 37.5696 47.3213 36.6457 46.5001 36.2352ZM45.1656 39.4172C44.8577 40.7516 44.0364 41.9835 42.9073 42.702C41.1622 43.8312 39.1092 44.0364 36.851 43.4205C27.3047 40.7516 22.2748 33.8741 20.6325 31.6158C18.169 28.2284 17.1424 24.7383 17.7583 21.9668C18.1689 20.1192 19.5034 18.7847 20.3246 18.0662C20.5299 17.8609 20.8379 17.7582 21.1458 17.7582L23.1988 17.9636L25.9703 24.4305L23.5067 27.202C23.0962 27.7153 22.9935 28.5364 23.3014 29.1524C26.6888 35.7219 32.8478 38.2882 34.6954 38.9041C35.4139 39.1094 36.1325 38.9041 36.6458 38.2882L39.1093 35.0034L45.5763 37.9802L45.1656 39.4172Z" fill="#2DE300"/>
</svg>
 