<svg width="183" height="29" viewBox="0 0 183 29" fill="none"
                    xmlns="http://www.w3.org/2000/svg">
                    <path opacity="0.5" fill-rule="evenodd" clip-rule="evenodd"
                        d="M121 0.469591C124.277 0.739632 127.615 1.12341 131 1.61383V3.63493C127.612 3.13845 124.274 2.74993 121 2.47644V0.469591ZM148 6.91899C144.979 6.20253 141.976 5.55759 139 4.98868V2.95284C141.977 3.51608 144.98 4.15467 148 4.86403V6.91899ZM156 8.971C159.327 9.88766 162.665 10.885 166 11.9572V9.85725C162.666 8.79458 159.328 7.80588 156 6.89714V8.971ZM182.636 17.9295C179.773 16.7936 176.891 15.7069 174 14.6732V12.5503C177.014 13.6189 180.017 14.7444 183 15.9225V17.0127L182.636 17.9295ZM113 0.0368561C111.992 0.0123618 110.992 0 110 0C107.689 0 105.354 0.0398716 103 0.118726V2.11981C105.354 2.04025 107.689 2 110 2C110.992 2 111.992 2.01256 113 2.03745V0.0368561ZM85 1.43316C88.3519 1.06115 91.6894 0.759563 95 0.530748V2.53544C91.6892 2.76622 88.3516 3.07035 85 3.44537V1.43316ZM77 2.45058C73.6669 2.92804 70.3295 3.47269 67 4.08224V6.11565C70.3288 5.50139 73.6663 4.95238 77 4.471V2.45058ZM42 12.0223C38.9601 12.905 35.9566 13.841 33 14.8283V12.7208C35.9584 11.7424 38.9618 10.8149 42 9.94037V12.0223ZM50 9.84309C52.9781 9.08426 55.9813 8.3764 59 7.72132V5.67518C55.9822 6.32481 52.9791 7.0269 50 7.7797V9.84309ZM25 15.5332V17.6693C21.9304 18.8272 18.926 20.0419 16 21.3109V19.1331C18.9292 17.8785 21.9334 16.6777 25 15.5332ZM8 22.7873V25.0151C5.4148 26.2933 2.90868 27.6168 0.492329 28.9835L0 28.1131V26.9655C2.57301 25.5235 5.24378 24.13 8 22.7873Z"
                        fill="#737BCA" />
                </svg>