<svg width="183" height="29" viewBox="0 0 183 29" fill="none"
                    xmlns="http://www.w3.org/2000/svg">
                    <path opacity="0.5" fill-rule="evenodd" clip-rule="evenodd"
                        d="M121 28.5138C124.277 28.2438 127.615 27.86 131 27.3696V25.3485C127.612 25.845 124.274 26.2335 121 26.507V28.5138ZM148 22.0644C144.979 22.7809 141.976 23.4258 139 23.9947V26.0306C141.977 25.4673 144.98 24.8287 148 24.1194V22.0644ZM156 20.0124C159.327 19.0957 162.665 18.0984 166 17.0262V19.1262C162.666 20.1888 159.328 21.1775 156 22.0863V20.0124ZM182.636 11.0539C179.773 12.1898 176.891 13.2765 174 14.3102V16.4331C177.014 15.3645 180.017 14.239 183 13.0609V11.9707L182.636 11.0539ZM113 28.9465C111.992 28.971 110.992 28.9834 110 28.9834C107.689 28.9834 105.354 28.9435 103 28.8647V26.8636C105.354 26.9432 107.689 26.9834 110 26.9834C110.992 26.9834 111.992 26.9708 113 26.9459V28.9465ZM85 27.5502C88.3519 27.9222 91.6894 28.2238 95 28.4527V26.448C91.6892 26.2172 88.3516 25.913 85 25.538V27.5502ZM77 26.5328C73.6669 26.0554 70.3295 25.5107 67 24.9012V22.8677C70.3288 23.482 73.6663 24.031 77 24.5124V26.5328ZM42 16.9611C38.9601 16.0784 35.9566 15.1424 33 14.1551V16.2626C35.9584 17.241 38.9618 18.1685 42 19.043V16.9611ZM50 19.1403C52.9781 19.8991 55.9813 20.607 59 21.2621V23.3082C55.9822 22.6586 52.9791 21.9565 50 21.2037V19.1403ZM25 13.4502V11.3141C21.9304 10.1562 18.926 8.9415 16 7.6725V9.85026C18.9292 11.1049 21.9334 12.3057 25 13.4502ZM8 6.19605V3.96826C5.4148 2.69009 2.90868 1.36661 0.492329 -0.000148773L0 0.87026V2.01787C2.57301 3.45993 5.24378 4.85343 8 6.19605Z"
                        fill="#737BCA" />
                </svg>