<svg width="1920" height="3309" viewBox="0 0 1920 3309" fill="none" xmlns="http://www.w3.org/2000/svg">
<path d="M-162 1593.5C-120.122 1588.95 -78.2436 1585.31 -32.7238 1597.15C11.8856 1608.98 60.1365 1636.29 111.119 1640.84C163.011 1644.49 217.635 1625.37 247.678 1591.68C277.721 1558 283.183 1510.66 285.915 1465.14C288.646 1419.62 289.556 1375.92 305.943 1340.41C322.33 1304.91 354.194 1276.69 397.893 1275.78C442.503 1273.95 499.858 1299.45 557.213 1319.47C614.567 1340.41 672.833 1354.98 709.249 1352.25C745.664 1349.52 760.231 1328.58 768.424 1296.71C775.707 1265.76 775.707 1223.88 779.349 1189.29C782.991 1154.69 789.363 1127.38 805.751 1101.89C822.138 1076.4 847.629 1051.82 876.761 1037.25C905.894 1021.78 938.668 1015.4 986.009 1026.33C1033.35 1037.25 1095.26 1066.38 1142.6 1080.95C1190.85 1096.43 1223.62 1098.25 1248.2 1072.76C1273.69 1047.27 1290.99 993.553 1300.1 946.212C1309.2 897.961 1309.2 856.083 1323.77 820.578C1338.33 785.072 1366.55 755.94 1408.43 751.388C1451.22 746.836 1506.76 767.775 1555.92 790.535C1605.08 814.205 1647.87 840.606 1699.76 850.621C1750.74 860.635 1809.92 854.262 1852.71 844.248C1895.49 835.144 1920.99 821.488 1947.39 808.743" stroke="#E69CFC" stroke-opacity="0.5" stroke-width="1.9995" stroke-dasharray="10 16"/>
<path d="M2185 1991.8C2135.84 1979.96 2087.59 1968.13 2041.16 1960.84C1995.64 1952.65 1951.94 1949.92 1904.6 1959.02C1858.17 1968.13 1807.19 1989.98 1758.94 2031.85C1710.68 2073.73 1664.25 2135.64 1624.2 2195.72C1583.23 2255.81 1548.63 2314.99 1512.22 2356.86C1475.8 2399.65 1437.57 2425.14 1387.49 2435.16C1337.42 2445.17 1274.6 2438.8 1218.16 2419.68C1161.72 2400.56 1111.64 2367.79 1053.38 2309.52C994.203 2251.26 927.744 2166.59 891.328 2088.3C854.002 2009.09 846.719 1935.35 862.195 1865.25C878.582 1795.15 916.819 1727.78 961.428 1684.08C1006.04 1640.38 1057.93 1619.44 1109.82 1614.89C1160.81 1610.34 1213.61 1623.09 1247.29 1655.86C1280.98 1687.72 1296.45 1739.62 1298.27 1792.42C1300.1 1845.22 1288.26 1898.03 1265.5 1946.28C1243.65 1994.53 1209.97 2037.32 1159.89 2074.64C1109.82 2111.06 1043.36 2142.01 986.92 2162.04C931.385 2182.07 887.686 2191.17 833.063 2195.72C779.349 2199.37 715.622 2198.46 652.804 2189.35C589.077 2180.25 526.259 2162.95 457.069 2147.47C386.969 2132.91 309.585 2120.16 228.56 2101.95C147.535 2082.84 62.8678 2059.17 0.0505219 2040.96C-62.7668 2022.75 -104.645 2010.91 -145.613 1999.08" stroke="#FF0000" stroke-opacity="0.3" stroke-width="1.9995" stroke-dasharray="10 16"/>
<path d="M-131.047 3243.35C-71.8709 3271.57 -12.6952 3299.8 51.9429 3306.17C117.491 3311.63 188.502 3296.16 239.484 3273.4C290.467 3251.55 321.42 3223.32 354.194 3214.22C386.969 3204.21 421.564 3214.22 458.89 3232.43C495.306 3251.55 534.453 3279.77 585.435 3287.96C636.417 3296.16 699.234 3283.41 745.664 3265.2C792.095 3247.9 821.227 3223.32 852.181 3195.1C883.134 3166.88 914.998 3135.02 937.758 3084.03C960.518 3033.05 974.174 2962.95 961.428 2919.25C948.683 2874.64 909.536 2855.52 871.299 2858.26C832.152 2860.08 793.005 2882.84 770.245 2910.15C747.485 2937.46 741.112 2970.23 752.037 3010.29C763.872 3050.35 793.005 3098.6 825.779 3140.48C858.553 3183.27 894.969 3219.68 935.027 3246.08C974.174 3273.4 1016.96 3290.69 1064.3 3286.14C1110.73 3282.5 1161.72 3257.01 1203.59 3227.88C1245.47 3199.65 1277.34 3166.88 1312.84 3132.28C1348.35 3097.69 1387.49 3059.45 1422.09 3038.51C1457.59 3018.48 1487.64 3013.93 1548.63 3028.5C1608.72 3043.98 1698.85 3076.75 1790.8 3089.5C1881.84 3102.24 1976.52 3094.96 2024.77 3085.85C2073.02 3076.75 2075.75 3067.65 2078.48 3058.54" stroke="#2BCDEA" stroke-opacity="0.3" stroke-width="1.9995" stroke-dasharray="10 16"/>
<path d="M1942 61.9083C1900.26 114.644 1858.51 167.38 1823.75 209.302C1789.19 252.114 1761.61 284.113 1712.92 313.199C1665.12 342.094 1597.99 367.694 1522.84 381.979C1447.5 395.375 1365.03 397.266 1302.71 384.585C1240.58 372.794 1198.6 346.43 1171.75 303.78C1145.08 262.02 1134.24 202.893 1152.27 152.459C1169.41 102.218 1216.31 60.4792 1262.97 52.3137C1309.64 44.1482 1356.77 68.4742 1379.75 114.751C1402.54 160.137 1402.07 227.283 1385.89 281.975C1369.7 336.668 1338.19 380.686 1293.13 413.649C1248.26 447.502 1190.03 471.188 1125.37 482.289C1061.41 492.309 990.319 490.823 933.022 479.856C876.425 467.807 834.51 446.085 793.478 411.137C752.637 377.079 712.488 328.904 686.064 266.606C659.832 205.199 648.025 128.586 671.079 79.8664C694.132 31.1473 753.127 11.0208 800.758 20.3405C849.278 29.469 886.434 68.0437 908.789 133.078C932.035 197.921 940.097 287.444 933.713 353.067C927.328 418.691 906.114 458.634 852.15 493.509C798.187 528.385 712.364 558.001 637.149 567.645C562.632 576.208 499.422 563.718 452.549 544.923C405.676 526.129 375.84 499.949 338.825 483.693C301.809 467.436 259.394 460.72 195.308 474.491C132.304 488.961 48.5193 523.726 -35.2656 558.492" stroke="#2DE300" stroke-opacity="0.5" stroke-width="1.9995" stroke-dasharray="10 16"/>
</svg>
