<svg width="1558" height="874" viewBox="0 0 1558 874" fill="none" xmlns="http://www.w3.org/2000/svg">
<path d="M1 843.744C42.8782 839.192 84.7564 835.55 130.276 847.385C174.886 859.22 223.137 886.532 274.119 891.084C326.011 894.726 380.635 875.607 410.678 841.923C440.721 808.238 446.183 760.898 448.915 715.378C451.646 669.858 452.556 626.159 468.943 590.654C485.33 555.148 517.194 526.926 560.893 526.016C605.503 524.195 662.858 549.686 720.213 569.715C777.567 590.654 835.833 605.22 872.249 602.489C908.664 599.758 923.231 578.818 931.424 546.955C938.707 516.001 938.707 474.123 942.349 439.528C945.991 404.933 952.363 377.621 968.751 352.13C985.138 326.639 1010.63 302.058 1039.76 287.492C1068.89 272.015 1101.67 265.642 1149.01 276.567C1196.35 287.492 1258.26 316.625 1305.6 331.191C1353.85 346.668 1386.62 348.488 1411.2 322.997C1436.69 297.506 1453.99 243.793 1463.1 196.452C1472.2 148.201 1472.2 106.323 1486.77 70.8177C1501.33 35.3123 1529.55 6.17961 1571.43 1.62763C1614.22 -2.92435 1669.76 18.0148 1718.92 40.7746C1768.08 64.4449 1810.87 90.8464 1862.76 100.861C1913.74 110.875 1972.92 104.502 2015.71 94.488C2058.49 85.384 2083.99 71.7281 2110.39 58.9826" stroke="#E69CFC" stroke-opacity="0.7" stroke-width="1.9995" stroke-dasharray="10 16"/>
</svg>
