<svg width="167" height="60" viewBox="0 0 167 60" fill="none" xmlns="http://www.w3.org/2000/svg">
<path d="M30.6621 44.3091V16.832H39.1236L48.222 30.889V16.832H52.3162V44.3091H47.858L34.7564 24.2472V44.3091H30.6621Z" fill="#7279CA"/>
<path d="M62.1864 44.309C60.7761 44.309 59.7753 43.9906 59.1839 43.3537C58.638 42.7623 58.3196 41.6705 58.3196 40.1238V30.2521C58.3196 28.7508 58.638 27.659 59.1839 27.0221C59.7753 26.3853 60.7761 26.1123 62.1864 26.1123H70.6479V28.8418H66.1442C65.4163 28.8418 64.8704 28.9783 64.6429 29.2512C64.37 29.5242 64.279 30.0701 64.279 30.8435V33.8459H69.9655V36.5754H64.279V39.5779C64.279 40.3967 64.37 40.8972 64.6429 41.1701C64.8704 41.4431 65.3708 41.5795 66.1442 41.5795H70.9663V44.309H62.1864Z" fill="#7279CA"/>
<path d="M78.3818 44.309V29.2057H73.5142V26.1123H89.2088V29.2057H84.3412V44.309H78.3818Z" fill="#7279CA"/>
<path d="M95.3496 37.3035C95.8955 38.6683 96.5779 39.6691 97.4423 40.397C98.2611 41.0793 99.2164 41.4433 100.217 41.4433C101.264 41.4433 102.128 41.1248 102.765 40.5334C103.447 39.8966 103.766 39.1232 103.766 38.2134C103.766 37.44 103.538 36.7576 103.038 36.1662C102.537 35.5748 101.718 34.938 100.536 34.3011L99.4439 33.7097C96.9418 32.3904 95.4406 31.4806 94.9402 31.0711C93.8939 30.1613 93.166 29.2515 92.7566 28.3416C92.3017 27.4773 92.1197 26.431 92.1197 25.2027C92.1197 22.5642 92.9841 20.4261 94.7582 18.7429C96.5324 17.0597 98.8525 16.1953 101.673 16.1953C103.675 16.1953 105.449 16.6502 106.95 17.5601C108.451 18.4699 109.634 19.7892 110.498 21.5179L107.359 23.7015C106.814 22.3822 106.131 21.3814 105.267 20.7445C104.448 20.0621 103.447 19.7437 102.264 19.7437C101.309 19.7437 100.49 20.0621 99.8533 20.6535C99.2164 21.2449 98.898 22.0183 98.898 22.9281C98.898 23.656 99.1709 24.3384 99.7169 24.9297C100.217 25.5211 101.218 26.158 102.765 26.9314L103.265 27.2043C106.086 28.6146 107.769 29.5244 108.315 30.0248C109.361 30.8437 110.089 31.708 110.544 32.6634C110.953 33.5732 111.181 34.665 111.181 35.8933C111.181 38.5773 110.271 40.7609 108.36 42.4896C106.495 44.1728 104.039 45.0371 101.036 45.0371C98.8525 45.0371 96.9873 44.5367 95.3041 43.5814C93.6664 42.6716 92.3927 41.3068 91.5283 39.5781L95.3496 37.3035Z" fill="#4F4F4F"/>
<path d="M115.276 26.1123H121.19V37.2123C121.19 38.85 121.418 39.9873 121.873 40.6697C122.328 41.3521 123.055 41.716 124.102 41.716C125.194 41.716 125.921 41.3521 126.376 40.6697C126.831 39.9873 127.059 38.85 127.059 37.2123V26.1123H129.97V37.8947C129.97 40.2603 129.379 42.0344 128.151 43.2172C126.922 44.4 125.103 44.9914 122.601 44.9914C120.099 44.9914 118.279 44.4 117.051 43.2627C115.868 42.0799 115.276 40.3058 115.276 37.8947V26.1123Z" fill="#4F4F4F"/>
<path d="M135.248 44.309V26.1123H143.209C145.62 26.1123 147.485 26.5672 148.759 27.4771C150.032 28.3869 150.669 29.7517 150.669 31.5258C150.669 32.7541 150.396 33.7094 149.85 34.4828C149.259 35.2562 148.395 35.8021 147.257 36.1205L152.625 44.309H145.665L141.525 35.7111V35.3926C142.663 35.2107 143.527 34.8467 144.027 34.3008C144.573 33.7094 144.846 32.9361 144.846 31.8443C144.846 30.798 144.573 29.9791 143.982 29.4332C143.436 28.8873 142.617 28.6144 141.48 28.6144C141.343 28.6144 141.207 28.6144 141.116 28.6144C141.025 28.6144 140.934 28.6598 140.843 28.6598V44.309H135.248Z" fill="#4F4F4F"/>
<path d="M155.537 21.3812C155.537 18.9702 155.992 17.287 156.902 16.3316C157.766 15.3763 159.313 14.9214 161.497 14.9214H166.683V17.6509H164.226C163.134 17.6509 162.407 17.8329 162.043 18.2423C161.679 18.6517 161.497 19.4251 161.497 20.5624V26.1124H166.137V28.8419H161.497V44.3091H155.537V21.3812Z" fill="#4F4F4F"/>
<path d="M23.8379 16.4226C23.8379 16.4226 23.7469 16.4681 23.6559 16.5136C23.5194 16.5591 23.3829 16.6501 23.2465 16.7411C23.11 16.7865 22.928 16.8775 22.837 16.9685C22.7461 17.014 22.6551 17.0595 22.6551 17.0595L22.7461 17.196C22.7461 17.196 22.7916 17.1505 22.928 17.0595C23.019 17.014 23.1555 16.923 23.292 16.8775C23.4739 16.7865 23.6104 16.6956 23.7014 16.6501C23.7924 16.6046 23.8834 16.5591 23.8834 16.5591L23.8379 16.4226ZM21.5633 17.7874C21.5633 17.7874 21.2903 18.0148 21.0629 18.1968C20.7899 18.4242 20.517 18.6517 20.517 18.6517L20.6534 18.7427C20.6534 18.7427 20.8809 18.5152 21.1538 18.3333C21.3813 18.1058 21.6543 17.9238 21.6543 17.9238L21.5633 17.7874ZM19.6071 19.5615C19.6071 19.5615 19.5161 19.607 19.4252 19.698C19.3797 19.789 19.2432 19.9255 19.1522 20.062C19.1067 20.1074 19.0157 20.1529 18.9702 20.2439C18.9247 20.2894 18.8793 20.3349 18.8338 20.3804C18.7883 20.4714 18.7428 20.5624 18.7428 20.5624L18.8338 20.6533C18.8338 20.6533 18.8793 20.6079 18.9702 20.4714C19.0157 20.4259 19.0612 20.3804 19.1067 20.3349C19.1522 20.2894 19.1977 20.1984 19.2432 20.1529C19.3797 20.0165 19.4706 19.88 19.5616 19.789C19.6526 19.698 19.6981 19.6525 19.6981 19.6525L19.6071 19.5615ZM17.9239 21.6542C17.9239 21.6542 17.8784 21.6997 17.8329 21.7906C17.7875 21.8816 17.742 21.9271 17.6965 21.9726C17.651 22.0636 17.651 22.1091 17.6055 22.2001C17.5145 22.3365 17.4235 22.473 17.378 22.6095C17.3325 22.655 17.287 22.7005 17.287 22.746L17.2415 22.7915L17.378 22.837C17.378 22.837 17.4235 22.837 17.4235 22.7915C17.4235 22.746 17.469 22.7005 17.469 22.655C17.56 22.564 17.651 22.4275 17.742 22.2911C17.742 22.2001 17.7875 22.1091 17.8329 22.0636C17.8784 22.0181 17.9239 21.9271 17.9694 21.8816C18.0149 21.7906 18.0604 21.6997 18.0604 21.6997L17.9239 21.6542ZM16.6502 23.9743C16.6502 23.9743 16.5592 24.2927 16.4227 24.5656C16.3317 24.8841 16.1952 25.2025 16.1952 25.2025L16.3317 25.248C16.3317 25.248 16.4682 24.9296 16.5592 24.6566C16.6956 24.3382 16.8321 24.0197 16.8321 24.0197L16.6502 23.9743ZM15.8313 26.4763C15.8313 26.4763 15.8313 26.5673 15.7858 26.7038C15.7403 26.7947 15.7403 26.9767 15.6948 27.1587C15.6493 27.2952 15.6038 27.4771 15.6038 27.5681C15.6038 27.7046 15.6038 27.7956 15.6038 27.7956H15.7403C15.7403 27.7956 15.7403 27.7501 15.7403 27.6136C15.7858 27.4771 15.8313 27.3406 15.8313 27.1587C15.8768 27.0222 15.9223 26.8402 15.9223 26.7493C15.9678 26.6128 15.9678 26.5218 15.9678 26.5218L15.8313 26.4763ZM15.4219 29.1148C15.4219 29.1148 15.4219 29.2058 15.4219 29.2968C15.4219 29.4333 15.4219 29.6152 15.4219 29.7517C15.4219 30.1157 15.4219 30.4341 15.4219 30.4341H15.5584C15.5584 30.4341 15.5584 30.1157 15.5584 29.7517C15.5584 29.6152 15.5584 29.4333 15.6038 29.3423C15.6038 29.2058 15.6038 29.1148 15.6038 29.1148H15.4219ZM15.5129 31.7534C15.5129 31.7534 15.5129 31.7534 15.5129 31.7988C15.5129 31.8443 15.5129 31.8898 15.5129 31.9353C15.5584 32.0718 15.5584 32.2538 15.6038 32.3902C15.6038 32.4812 15.6493 32.5722 15.6493 32.6632C15.6493 32.7087 15.6493 32.7997 15.6948 32.8452C15.6948 32.9816 15.7403 33.0726 15.7403 33.0726L15.8768 33.0271C15.8768 33.0271 15.8768 32.9361 15.8313 32.8452C15.8313 32.7542 15.7858 32.7087 15.7858 32.6177C15.7858 32.5267 15.7858 32.4812 15.7403 32.3902C15.7403 32.2083 15.6948 32.0718 15.6948 31.9353C15.6948 31.8898 15.6948 31.8443 15.6493 31.7988C15.6493 31.7534 15.6493 31.7534 15.6493 31.7534H15.5129ZM16.0588 34.3464C16.0588 34.3464 16.1497 34.6648 16.2407 34.9833C16.3772 35.3017 16.4682 35.6202 16.4682 35.6202L16.6047 35.5747C16.6047 35.5747 16.5137 35.2562 16.3772 34.9378C16.2862 34.6193 16.1952 34.3009 16.1952 34.3009L16.0588 34.3464ZM17.0141 36.8484C17.0141 36.8484 17.0596 36.8939 17.1051 37.0304C17.1506 37.1214 17.2415 37.2579 17.3325 37.4398C17.4235 37.5763 17.469 37.7128 17.56 37.8038C17.6055 37.9402 17.651 37.9857 17.651 37.9857L17.7875 37.8948C17.7875 37.8948 17.742 37.8493 17.6965 37.7583C17.6055 37.6218 17.56 37.4853 17.469 37.3489C17.378 37.2124 17.287 37.0759 17.2415 36.9394C17.1961 36.8484 17.1506 36.7575 17.1506 36.7575L17.0141 36.8484ZM18.3788 39.0775C18.3788 39.0775 18.6063 39.3505 18.7883 39.6234C19.0157 39.8509 19.2432 40.1239 19.2432 40.1239L19.3342 40.0329C19.3342 40.0329 19.1522 39.7599 18.9247 39.5325C18.6973 39.2595 18.5153 38.9866 18.5153 38.9866L18.3788 39.0775ZM20.153 41.0792C20.153 41.0792 20.1985 41.1247 20.2895 41.2157C20.3805 41.3066 20.517 41.3976 20.6534 41.5341C20.6989 41.5796 20.7444 41.6251 20.8354 41.6706C20.8809 41.7161 20.9264 41.7616 20.9719 41.8071C21.1084 41.898 21.1538 41.9435 21.1538 41.9435L21.2448 41.8071C21.2448 41.8071 21.1993 41.7616 21.0629 41.7161C21.0174 41.6706 20.9719 41.6251 20.9264 41.5796C20.8809 41.4886 20.7899 41.4431 20.7444 41.3976C20.6079 41.3066 20.4715 41.1702 20.3805 41.1247C20.335 41.0337 20.244 40.9427 20.244 40.9427L20.153 41.0792ZM22.2457 42.7169C22.2457 42.7169 22.2911 42.7624 22.3821 42.8534C22.5186 42.8989 22.6551 42.9898 22.7916 43.0808C22.928 43.1718 23.0645 43.2628 23.201 43.3083C23.2465 43.3538 23.292 43.3538 23.292 43.3993C23.3375 43.3993 23.3829 43.3993 23.3829 43.3993L23.4284 43.2628C23.4284 43.2628 23.4284 43.2628 23.3829 43.2628C23.3375 43.2173 23.292 43.2173 23.2465 43.1718C23.1555 43.1263 23.019 43.0353 22.8825 42.9443C22.7006 42.8534 22.5641 42.7624 22.4731 42.7169C22.3821 42.6259 22.2911 42.5804 22.2911 42.5804L22.2457 42.7169Z" fill="#4F4F4F"/>
<path d="M17.1865 16.3773C17.0045 16.5592 16.8225 16.7412 16.5951 16.9687C15.8217 17.833 14.7299 19.1523 13.7291 20.972C12.7737 22.7916 11.9549 25.0662 11.591 27.6138C11.4545 28.8875 11.409 30.2068 11.5 31.526C11.6364 32.8908 11.8639 34.2101 12.2733 35.5293C12.6828 36.8486 13.1832 38.1224 13.8655 39.3052C14.5024 40.4424 15.2758 41.5343 16.0946 42.5351C16.9135 43.4904 17.8233 44.3548 18.7787 45.0826C19.6885 45.8105 20.5983 46.4019 21.5082 46.8568C22.6 47.4482 23.6008 47.8576 24.4651 48.1761V48.0396C24.3287 47.9941 24.1922 47.9486 24.0102 47.9031C23.2369 47.5847 22.3725 47.2207 21.5082 46.7658C20.5983 46.2654 19.6885 45.674 18.7787 44.9462C17.8688 44.2183 16.959 43.3994 16.1401 42.3986C15.3213 41.4433 14.5934 40.397 13.9565 39.2142C13.2742 38.0769 12.7737 36.8031 12.3643 35.5293C11.591 32.9363 11.3635 30.1613 11.7274 27.6593C11.8639 26.431 12.1369 25.2027 12.5008 24.1109C12.8647 23.0191 13.3196 22.0183 13.7746 21.1084C14.275 20.2441 14.7754 19.4252 15.2758 18.7883C15.3213 18.6974 15.3668 18.6064 15.4123 18.5154C15.5033 18.4699 15.5487 18.3789 15.6397 18.2879C15.7307 18.1515 15.8672 18.015 15.9582 17.8785C16.1856 17.6056 16.4131 17.3326 16.5951 17.1051C16.8225 16.9232 17.0045 16.7412 17.141 16.5592C17.1865 16.5138 17.2319 16.4683 17.2774 16.4228C17.3229 16.4228 17.3229 16.3773 17.3684 16.3318C17.4594 16.2863 17.5049 16.1953 17.5959 16.1498C18.7181 15.0276 22.8966 13.0002 24.5 13.0002V12.5002C22.0781 13.4914 19.0717 14.492 17.1865 16.3773Z" fill="#4F4F4F"/>
<path d="M16.3781 22.6552L14.5129 21.6544C14.5129 21.6544 14.5584 21.6089 14.6039 21.4724C14.6494 21.3814 14.7404 21.245 14.8314 21.1085C15.0133 20.79 15.1498 20.5171 15.1498 20.5171L16.924 21.6089C16.924 21.6089 16.7875 21.8818 16.6511 22.1093C16.5601 22.2458 16.5146 22.3823 16.4691 22.4732C16.4236 22.5642 16.3781 22.6552 16.3781 22.6552Z" fill="#4F4F4F"/>
<path d="M15.6513 35.8023L13.6952 36.5756C13.6952 36.5756 13.5587 36.2572 13.4677 35.9387C13.4222 35.8023 13.3767 35.6203 13.3312 35.5293C13.2857 35.3928 13.2402 35.3018 13.2402 35.3018L15.2419 34.7104C15.2419 34.7104 15.2874 34.7559 15.3329 34.8924C15.3329 34.9834 15.3784 35.1199 15.4238 35.2564C15.5603 35.5293 15.6513 35.8023 15.6513 35.8023Z" fill="#4F4F4F"/>
<path d="M14.9675 33.6642L12.9203 34.1192C12.9203 34.1192 12.9203 34.1192 12.9203 34.0737C12.9203 34.0282 12.9203 33.9827 12.8748 33.9372C12.8748 33.8007 12.8293 33.6187 12.7839 33.4823C12.7839 33.3003 12.7384 33.1638 12.6929 33.0273C12.6929 32.8909 12.6929 32.7999 12.6929 32.7999L14.74 32.4814C14.74 32.4814 14.7855 32.5724 14.7855 32.6634C14.7855 32.7999 14.831 32.9364 14.8765 33.0728C14.8765 33.2093 14.922 33.3458 14.922 33.4823C14.9675 33.5278 14.9675 33.5732 14.9675 33.5732C14.9675 33.6187 14.9675 33.6642 14.9675 33.6642Z" fill="#4F4F4F"/>
<path d="M16.6062 37.8947L14.7865 38.8955C14.7865 38.8955 14.7411 38.8045 14.6956 38.7136C14.6046 38.6226 14.5136 38.4406 14.4681 38.3041C14.3316 38.0312 14.1497 37.7127 14.1497 37.7127L16.0603 36.8484C16.0603 36.8484 16.1968 37.0758 16.3333 37.3488C16.3788 37.4853 16.4697 37.6217 16.5152 37.7127C16.5607 37.8037 16.6062 37.8947 16.6062 37.8947Z" fill="#4F4F4F"/>
<path d="M14.6037 31.3895L12.5111 31.5715C12.5111 31.5715 12.5111 31.526 12.5111 31.3895C12.5111 31.253 12.5111 31.1165 12.5111 30.9346C12.4656 30.7526 12.4656 30.6161 12.4656 30.4797C12.4656 30.3432 12.4656 30.2522 12.4656 30.2522H14.5582C14.5582 30.2522 14.5582 30.2977 14.5582 30.4342C14.5582 30.5251 14.5582 30.6616 14.6037 30.8436C14.6037 30.9801 14.6037 31.1165 14.6037 31.2075C14.6037 31.344 14.6037 31.3895 14.6037 31.3895Z" fill="#4F4F4F"/>
<path d="M19.3346 41.4431L17.8788 42.9444C17.8788 42.9444 17.7878 42.8989 17.6969 42.8079C17.6059 42.7169 17.5149 42.5804 17.3784 42.4894C17.2874 42.353 17.151 42.262 17.1055 42.171C17.0145 42.08 16.969 41.989 16.969 41.989L18.5157 40.6243C18.5157 40.6243 18.5612 40.6698 18.6522 40.7607C18.7432 40.8517 18.8342 40.9427 18.9251 41.0337C19.0161 41.1702 19.1071 41.2612 19.1981 41.3521C19.2891 41.3976 19.3346 41.4431 19.3346 41.4431Z" fill="#4F4F4F"/>
<path d="M17.8332 39.76L16.1955 41.0338C16.1955 41.0338 16.1045 40.9883 16.059 40.8518C15.968 40.7608 15.877 40.6244 15.7861 40.4879C15.6951 40.3514 15.6041 40.2149 15.5131 40.124C15.4676 40.0785 15.4676 40.033 15.4221 39.9875V39.942L17.1508 38.8047L17.1963 38.8502C17.1963 38.8957 17.2418 38.9412 17.2873 38.9867C17.3328 39.0776 17.4238 39.1686 17.5147 39.3051C17.5602 39.3961 17.6512 39.5326 17.7422 39.6235C17.7877 39.7145 17.8332 39.76 17.8332 39.76Z" fill="#4F4F4F"/>
<path d="M24.5197 46.4016L24.2922 47.084C24.2922 47.084 24.2013 47.0385 24.1103 46.993C23.9738 46.9475 23.8373 46.902 23.7009 46.811C23.5189 46.7656 23.3824 46.7201 23.2459 46.6291C23.1549 46.5836 23.064 46.5381 23.064 46.5381L23.9283 44.6274C23.9283 44.6274 24.0193 44.6729 24.1103 44.7184C24.2013 44.7639 24.3377 44.8094 24.4742 44.9004H24.5197V46.4016Z" fill="#4F4F4F"/>
<path d="M21.0637 42.9444L19.7899 44.6276C19.7899 44.6276 19.7444 44.5821 19.6534 44.4911C19.5169 44.4457 19.4259 44.3092 19.2895 44.2182C19.153 44.1272 19.0165 43.9907 18.9255 43.9452C18.8346 43.8543 18.7891 43.8088 18.7891 43.8088L20.1538 42.2166C20.1538 42.2166 20.1993 42.262 20.2903 42.3075C20.3358 42.3985 20.4723 42.4895 20.6087 42.5805C20.6997 42.6715 20.8362 42.7625 20.8817 42.8534C20.9727 42.8989 21.0637 42.9444 21.0637 42.9444Z" fill="#4F4F4F"/>
<path d="M17.56 20.6989L15.8313 19.4706C15.8313 19.4706 15.8768 19.4251 15.9678 19.3342C16.0588 19.1977 16.1497 19.0612 16.2407 18.9702C16.4227 18.6973 16.6502 18.4243 16.6502 18.4243L18.2424 19.7436C18.2424 19.7436 18.0604 20.0165 17.8784 20.244C17.7874 20.335 17.742 20.4714 17.651 20.5624C17.6055 20.6534 17.56 20.6989 17.56 20.6989Z" fill="#4F4F4F"/>
<path d="M21.7001 16.6501C21.7001 16.6501 21.4272 16.8321 21.1542 17.0141C20.9268 17.2415 20.6538 17.4235 20.6538 17.4235L20.2444 16.8776C20.2444 16.8776 20.6083 16.8321 20.9723 16.7411C21.3362 16.6956 21.7001 16.6501 21.7001 16.6501Z" fill="#4F4F4F"/>
<path d="M18.9704 18.9702L17.6511 17.6965C17.6511 17.6965 17.9696 17.56 18.3335 17.4235C18.6519 17.3325 19.0159 17.196 19.0159 17.196L19.8347 18.1059C19.8347 18.1059 19.6073 18.3333 19.3798 18.5153C19.1978 18.7428 18.9704 18.9702 18.9704 18.9702Z" fill="#4F4F4F"/>
<path d="M22.9743 44.1727L21.9735 45.9924H21.928C21.8825 45.9469 21.837 45.9469 21.7915 45.9014C21.655 45.8559 21.5186 45.7649 21.3821 45.6739C21.1091 45.492 20.8362 45.31 20.8362 45.31L21.9735 43.5813C21.9735 43.5813 22.2009 43.7178 22.4739 43.8542C22.5649 43.9452 22.7013 44.0362 22.7923 44.0817C22.8378 44.0817 22.8833 44.1272 22.9288 44.1272C22.9288 44.1727 22.9743 44.1727 22.9743 44.1727Z" fill="#4F4F4F"/>
<path d="M15.4693 24.7024L13.5132 24.02C13.5132 24.02 13.5132 23.929 13.5587 23.8381C13.6042 23.7016 13.6497 23.5651 13.7406 23.3831C13.8316 23.1102 13.9681 22.7917 13.9681 22.7917L15.8788 23.6106C15.8788 23.6106 15.7878 23.8836 15.6968 24.1565C15.6058 24.293 15.5603 24.4295 15.5148 24.5659C15.5148 24.6569 15.4693 24.7024 15.4693 24.7024Z" fill="#4F4F4F"/>
<path d="M14.6039 29.1603L12.5112 29.0239C12.5112 29.0239 12.5112 28.7054 12.5567 28.387C12.5567 28.205 12.5567 28.023 12.6022 27.932C12.6022 27.8411 12.6022 27.7956 12.6022 27.7501V27.7046L14.6948 27.9775V28.023C14.6948 28.0685 14.6493 28.114 14.6493 28.1595C14.6493 28.296 14.6493 28.4325 14.6493 28.5689C14.6039 28.8419 14.6039 29.1603 14.6039 29.1603Z" fill="#4F4F4F"/>
<path d="M14.876 26.8856L12.8289 26.4762C12.8289 26.4762 12.8289 26.4307 12.8743 26.2942C12.8743 26.2487 12.8743 26.1577 12.9198 26.0667C12.9198 26.0212 12.9198 25.9303 12.9653 25.8393C13.0108 25.7028 13.0563 25.5208 13.0563 25.3844C13.1018 25.3389 13.1018 25.2934 13.1018 25.2479V25.2024L15.1489 25.7483C15.1489 25.7483 15.1489 25.7938 15.1034 25.7938C15.1034 25.8393 15.1034 25.8848 15.1034 25.9303C15.058 26.0667 15.0125 26.2032 15.0125 26.3397C14.967 26.3852 14.967 26.4762 14.9215 26.5217C14.9215 26.6126 14.9215 26.6581 14.9215 26.7491C14.876 26.8401 14.876 26.8856 14.876 26.8856Z" fill="#4F4F4F"/>
<path d="M24.5206 6.41431C22.7919 6.86923 21.0632 7.5516 19.4255 8.37046C19.1526 8.50693 18.9251 8.64341 18.6977 8.77988L18.3337 8.96185C18.1972 9.05283 18.1063 9.09833 17.9698 9.18931C17.7423 9.32578 17.5149 9.46226 17.2874 9.59874C17.0599 9.7807 16.8325 9.91718 16.605 10.0991L16.2866 10.3266L15.9226 10.5541C15.7407 10.736 15.5132 10.918 15.2858 11.1C14.8763 11.4639 14.4214 11.7823 14.012 12.1918L13.739 12.4647L13.5571 12.6012L13.4206 12.7832C13.2386 12.9651 13.0112 13.1926 12.8292 13.3746C12.6472 13.602 12.4653 13.784 12.2833 14.0114L11.9649 14.3299L11.6919 14.6483C11.0095 15.5582 10.3272 16.5135 9.73576 17.4688C8.55297 19.4705 7.64313 21.6086 7.05174 23.9287C6.46035 26.2033 6.1874 28.5688 6.27838 30.9344L6.32387 31.8442L6.41486 32.7541C6.41486 33.027 6.50584 33.3455 6.55133 33.6184L6.59682 34.0733L6.64231 34.3008L6.68781 34.5283L6.86977 35.3926C6.91527 35.6656 7.00625 35.984 7.05174 36.257L7.18822 36.6664L7.32469 37.1213C7.41568 37.3943 7.50666 37.6672 7.59764 37.9856C7.96158 39.0774 8.46199 40.2147 9.00789 41.2611C9.55379 42.3074 10.1907 43.3537 10.8731 44.309C11.5554 45.2643 12.3288 46.1742 13.1476 47.0385C14.012 47.9029 14.8763 48.6762 15.8317 49.4041C16.7415 50.0865 17.7423 50.7689 18.7431 51.3148C19.7895 51.8607 20.8358 52.3611 21.8821 52.816C22.155 52.907 22.428 52.998 22.7009 53.0889L23.1104 53.2254L23.5198 53.3619C23.7927 53.4529 24.0657 53.5439 24.3386 53.5893L24.5206 53.6348V53.0889H24.4751C24.2022 52.998 23.9747 52.907 23.7018 52.816L23.2923 52.725L22.8829 52.5885C22.6099 52.4975 22.337 52.4066 22.1095 52.2701C21.0177 51.8607 20.0169 51.4057 19.0161 50.8598C18.0153 50.2684 17.0599 49.6316 16.1501 48.9492C15.2403 48.2668 14.3759 47.4934 13.5571 46.6746C12.7382 45.8102 12.0104 44.9459 11.328 43.9906C10.6456 43.0352 10.0087 42.0344 9.46281 41.0336C8.9624 39.9873 8.50748 38.8955 8.09805 37.8037C8.00707 37.5307 7.91609 37.2123 7.8251 36.9393L7.68863 36.5299L7.59764 36.1205C7.55215 35.8475 7.46117 35.5291 7.37018 35.2561L7.23371 34.3918L7.18822 34.2098L7.14272 33.9824L7.05174 33.5274C7.00625 33.2545 6.96076 32.9815 6.96076 32.6631L6.86977 31.7988L6.82428 30.9344C6.7333 28.6143 7.00625 26.2487 7.55215 24.0651C8.14355 21.836 9.05338 19.6979 10.1907 17.7418C10.7821 16.7864 11.419 15.8766 12.1468 15.0123L12.4198 14.6938L12.6927 14.3754C12.8747 14.1479 13.0567 13.966 13.2386 13.7385C13.4206 13.5565 13.6026 13.3746 13.7845 13.1471L13.9665 13.0106L14.103 12.8741L14.3759 12.6012C14.7854 12.1918 15.1948 11.8733 15.6497 11.5094C15.8317 11.3274 16.0591 11.1909 16.2866 11.009L16.605 10.7815L16.9235 10.5541C17.1509 10.3721 17.3784 10.2356 17.6058 10.0991C17.8333 9.91718 18.0608 9.7807 18.2882 9.64423C18.3792 9.59874 18.5157 9.50775 18.6067 9.46226L18.9706 9.2348C19.1981 9.14382 19.4255 9.00734 19.653 8.87087C21.2452 8.05201 22.8829 7.41513 24.5206 7.0057V6.41431Z" fill="#4F4F4F"/>
<path d="M24.5198 2.86597C22.2452 3.36638 20.0161 4.18523 17.8325 5.32253C17.5596 5.459 17.2866 5.59548 17.0136 5.77744L16.6042 6.0049C16.4677 6.0504 16.3313 6.14138 16.1948 6.23236C15.9218 6.41433 15.6489 6.55081 15.4214 6.73277C15.1485 6.91474 14.8755 7.09671 14.6026 7.27868L14.2386 7.55163L13.8747 7.82458C13.6018 8.00654 13.3743 8.18851 13.1013 8.41597C12.6009 8.8254 12.146 9.23482 11.6456 9.64425L11.3272 10.0082L11.1452 10.1447L10.9632 10.3266C10.7358 10.5541 10.5083 10.7815 10.2809 11.009C10.0989 11.2365 9.87143 11.5094 9.64397 11.7369L9.32553 12.1008L9.00708 12.5102C8.18823 13.5111 7.46036 14.5574 6.77798 15.6947C5.41323 17.9693 4.36692 20.4258 3.68454 23.0189C3.00216 25.6574 2.72921 28.3414 2.82019 31.0709L2.86569 32.1172L2.95667 33.118C3.00216 33.482 3.04765 33.8004 3.09315 34.1189L3.18413 34.6193L3.22962 34.8922L3.27511 35.1652L3.50257 36.166C3.54806 36.4844 3.63905 36.8029 3.73003 37.1213L3.86651 37.6217L4.00298 38.1221C4.09397 38.4406 4.23044 38.759 4.32143 39.0775C4.77634 40.3967 5.32225 41.625 5.91364 42.8533C6.55053 44.0361 7.27839 45.2189 8.05176 46.3107C8.87061 47.448 9.73495 48.4943 10.6903 49.4496C11.6456 50.4049 12.6464 51.3148 13.6927 52.1336C14.7845 52.9525 15.9218 53.6803 17.0591 54.3172C18.2419 54.9541 19.4247 55.5455 20.653 56.0004C20.9714 56.1369 21.2899 56.2279 21.5628 56.3644L22.0632 56.5008L22.5182 56.6373C22.8366 56.7283 23.155 56.8648 23.4735 56.9103C23.7919 57.0013 24.0649 57.0922 24.3833 57.1832H24.5198V56.9103H24.4743C24.1559 56.8193 23.8374 56.7283 23.519 56.6828C23.2005 56.5918 22.8821 56.5008 22.6091 56.4099L22.1087 56.2734L21.6538 56.0914C21.3809 56.0004 21.0624 55.864 20.744 55.773C19.5157 55.3181 18.3329 54.7267 17.1956 54.0898C16.0583 53.4529 14.921 52.725 13.8747 51.9062C12.8284 51.0873 11.8276 50.223 10.8722 49.2676C9.96241 48.3123 9.09807 47.266 8.27922 46.1742C7.50585 45.0824 6.82348 43.8996 6.18659 42.7168C5.5497 41.534 5.0038 40.2603 4.59438 38.9865C4.4579 38.668 4.36692 38.3496 4.27593 38.0312L4.13946 37.5762L4.00298 37.0758C3.912 36.7574 3.82101 36.3935 3.73003 36.075L3.54806 35.0742L3.50257 34.8467L3.45708 34.5738L3.3661 34.0734C3.3206 33.7549 3.27511 33.4365 3.22962 33.0725L3.13864 32.0717L3.09315 31.0709C3.00216 28.3869 3.27511 25.6574 3.95749 23.1098C4.63987 20.5168 5.68618 18.0602 7.00544 15.8311C7.68782 14.7393 8.41569 13.6475 9.23454 12.6467L9.55299 12.2828L9.87143 11.9188C10.0534 11.6914 10.2809 11.4184 10.5083 11.191C10.7358 10.9635 10.9632 10.7361 11.1452 10.5086L11.3272 10.3721L11.5091 10.1902L11.8731 9.87171C12.328 9.41679 12.7829 9.00736 13.2833 8.59794C13.5108 8.41597 13.7837 8.234 14.0112 8.05204L14.3751 7.73359L14.7845 7.50613C15.0575 7.32417 15.285 7.1422 15.5579 6.96023C15.8309 6.77826 16.0583 6.64179 16.3313 6.45982C16.4677 6.36884 16.6042 6.32335 16.7407 6.23236L17.1501 6.0049C17.4231 5.86843 17.6505 5.68646 17.9235 5.54999C20.1071 4.45818 22.2907 3.63933 24.5198 3.13892V2.86597Z" fill="#4F4F4F"/>
<path d="M24.5208 2.04712L24.3844 2.09261C22.0643 2.63851 19.6987 3.45737 17.4696 4.59466C17.1512 4.77663 16.8782 4.9131 16.6053 5.09507L16.1958 5.32253C16.0594 5.36802 15.9229 5.45901 15.7864 5.54999C15.5135 5.73196 15.2405 5.91393 14.9676 6.0504C14.6946 6.23237 14.4216 6.41434 14.1487 6.5963L13.7848 6.91475L13.3753 7.1877C13.1024 7.36966 12.8749 7.59712 12.602 7.77909C12.1016 8.18852 11.6012 8.64344 11.1462 9.09835L10.7823 9.4168L10.6003 9.59876L10.4184 9.78073C10.1909 10.0082 9.96345 10.2357 9.73599 10.4631C9.50853 10.7361 9.28107 10.9635 9.05361 11.2365L8.73517 11.6004L8.41672 12.0098C7.55238 13.0107 6.82451 14.1479 6.09664 15.2852C4.68639 17.6053 3.64008 20.1529 2.91221 22.8369C2.22983 25.5209 1.91139 28.2959 2.04787 31.1164L2.09336 32.1627L2.18434 33.209C2.22983 33.573 2.27533 33.8914 2.32082 34.2553L2.4118 34.7557L2.45729 35.0287L2.50279 35.3017L2.73024 36.3025C2.77574 36.6664 2.86672 36.9848 2.9577 37.3488L3.09418 37.8492L3.27615 38.3496C3.36713 38.668 3.45811 39.032 3.59459 39.3504C4.04951 40.6697 4.59541 41.9435 5.2323 43.2172C5.86918 44.4455 6.59705 45.6738 7.4159 46.8111C8.23476 47.9029 9.14459 48.9947 10.0999 49.9955C11.1007 50.9963 12.1471 51.9062 13.2389 52.7705C14.3307 53.5894 15.468 54.3627 16.6962 55.0451C17.879 55.682 19.1073 56.2734 20.3811 56.7738C20.6995 56.8648 21.018 57.0013 21.3364 57.0922L21.7913 57.2742L22.2917 57.4107C22.6102 57.5017 22.9286 57.5927 23.2471 57.6836C23.5655 57.7746 23.884 57.8656 24.2024 57.9566L24.4753 58.0021H24.5208V57.8656H24.4753L24.2479 57.8201C23.9294 57.7291 23.611 57.6381 23.2926 57.5472C22.9741 57.5017 22.6557 57.3652 22.3372 57.2742L21.8368 57.1377L21.3819 56.9558C21.0635 56.8648 20.745 56.7738 20.4266 56.6373C19.1528 56.1369 17.9245 55.5455 16.7417 54.9086C15.5589 54.2263 14.4216 53.4984 13.3298 52.634C12.238 51.8152 11.1917 50.9054 10.2364 49.9045C9.23558 48.9037 8.37123 47.8574 7.55238 46.7201C6.73353 45.5828 6.00566 44.4 5.32328 43.1717C4.73189 41.898 4.14049 40.6242 3.68557 39.3049C3.59459 38.9865 3.50361 38.6226 3.36713 38.3041L3.23065 37.8037L3.09418 37.3033C3.0032 36.9848 2.91221 36.6209 2.86672 36.3025L2.63926 35.2562L2.59377 35.0287L2.54828 34.7557L2.45729 34.2098C2.4118 33.8914 2.36631 33.5275 2.32082 33.209L2.22983 32.1627L2.18434 31.1164C2.04787 28.3414 2.36631 25.5209 3.04869 22.8824C3.77656 20.1984 4.82287 17.6963 6.23312 15.3762C6.91549 14.1934 7.68885 13.1016 8.50771 12.1008L8.82615 11.6914L9.14459 11.3275C9.37205 11.0545 9.59951 10.827 9.82697 10.5541C10.0544 10.3266 10.2819 10.0992 10.5093 9.87172L10.6913 9.68975L10.8733 9.50778L11.2372 9.18934C11.6921 8.73442 12.1925 8.32499 12.693 7.87007C12.9659 7.68811 13.1934 7.50614 13.4663 7.27868L13.8303 7.00573L14.2397 6.73278C14.5126 6.55081 14.7856 6.36884 15.0585 6.18688C15.3315 6.00491 15.6044 5.82294 15.8774 5.68647C16.0139 5.59548 16.1048 5.5045 16.2413 5.41352L16.6962 5.18606C16.9692 5.04958 17.2421 4.86761 17.5151 4.73114C19.7442 3.59384 22.0643 2.7295 24.4299 2.22909L24.5208 2.18359V2.04712Z" fill="#4F4F4F"/>
<path d="M24.5203 3.86694C23.8379 4.00342 23.2465 4.18539 22.7006 4.36735C22.4277 4.45834 22.2002 4.50383 21.9727 4.59481C21.7453 4.6858 21.5633 4.73129 21.4268 4.77678C21.1539 4.91326 20.9719 4.95875 20.9719 4.95875L21.6543 6.64195C21.6543 6.64195 21.7908 6.59645 22.0637 6.50547C22.2002 6.45998 22.3822 6.41449 22.5641 6.3235C22.7461 6.27801 23.0191 6.18703 23.2465 6.09604C23.6105 6.00506 24.0654 5.86858 24.5203 5.73211V3.86694Z" fill="#4F4F4F"/>
<path d="M6.05029 20.3801C6.05029 20.3801 6.14128 20.1072 6.32324 19.7432C6.41423 19.5158 6.50521 19.2883 6.64169 19.0154C6.68718 18.8789 6.77816 18.7424 6.82365 18.5605C6.86915 18.515 6.91464 18.424 6.96013 18.333C7.00562 18.242 7.05111 18.1965 7.09661 18.1055C7.18759 17.9236 7.23308 17.7871 7.36956 17.6051C7.46054 17.4232 7.55152 17.2412 7.64251 17.0592C7.73349 16.8773 7.86997 16.6498 7.96095 16.4678C8.09743 16.2859 8.18841 16.1039 8.32488 15.8764C8.59784 15.5125 8.82529 15.1031 9.14374 14.6936C9.28021 14.5117 9.41669 14.3297 9.55316 14.1023C9.68964 13.9203 9.87161 13.7383 10.0081 13.5109C10.1901 13.3289 10.3265 13.1469 10.5085 12.965C10.645 12.783 10.8269 12.601 10.9634 12.4191C11.0544 12.3281 11.1454 12.2371 11.2364 12.1461C11.2819 12.0551 11.3728 11.9641 11.4638 11.8732C11.6458 11.6912 11.7823 11.5092 11.9642 11.3727C12.1007 11.1908 12.2827 11.0543 12.4646 10.8723C12.6011 10.7359 12.7831 10.5994 12.9196 10.4174C13.1015 10.2809 13.238 10.1445 13.3745 10.008C13.5564 9.917 13.6929 9.78053 13.8294 9.64405C14.1023 9.41659 14.3753 9.18913 14.6483 9.00717C14.8757 8.8252 15.0577 8.68872 15.2396 8.55225C15.6036 8.32479 15.831 8.14282 15.831 8.14282L16.6044 9.28012C16.6044 9.28012 16.3769 9.41659 16.0585 9.68954C15.8765 9.78053 15.6946 9.917 15.4671 10.099C15.2396 10.2809 14.9667 10.4629 14.6937 10.6904C14.5573 10.8268 14.4208 10.9178 14.2843 11.0543C14.1478 11.1908 14.0114 11.3273 13.8294 11.4637C13.6929 11.6002 13.5564 11.7367 13.3745 11.8732C13.238 12.0096 13.056 12.1461 12.9196 12.3281C12.7831 12.4645 12.6011 12.6465 12.4646 12.8285C12.3737 12.874 12.2827 12.965 12.2372 13.0559C12.1462 13.1469 12.0552 13.2379 12.0097 13.3289C11.8278 13.4654 11.6913 13.6473 11.5548 13.8293C11.3728 14.0113 11.2364 14.1932 11.0999 14.3752C10.9634 14.5572 10.7814 14.7391 10.645 14.9211C10.5085 15.1486 10.372 15.3305 10.2355 15.5125C9.96259 15.8764 9.73513 16.2404 9.50767 16.6498C9.3712 16.8318 9.28021 17.0137 9.14374 17.1957C9.05275 17.3777 8.96177 17.5596 8.82529 17.6961C8.73431 17.8781 8.64333 18.06 8.55234 18.242C8.46136 18.424 8.37038 18.5605 8.32488 18.7424C8.27939 18.7879 8.2339 18.8789 8.18841 18.9699C8.14292 19.0154 8.09743 19.1064 8.09743 19.1518C8.00644 19.3338 7.96095 19.4703 7.86997 19.6068C7.77898 19.8342 7.64251 20.0617 7.59702 20.2437C7.41505 20.6531 7.32406 20.8805 7.32406 20.8805L6.05029 20.3801Z" fill="#4F4F4F"/>
<path d="M18.1048 52.7708C18.1048 52.7708 18.1048 52.7708 18.0138 52.7253C17.9228 52.6798 17.8318 52.6343 17.7408 52.5433C17.4679 52.4068 17.1494 52.2249 16.8765 52.0429C16.558 51.8154 16.2396 51.6335 16.0121 51.497C15.8757 51.406 15.7847 51.315 15.7392 51.2695C15.6937 51.224 15.6482 51.224 15.6482 51.224L16.1486 50.4507C16.1486 50.4507 16.1941 50.4962 16.2851 50.5417C16.3306 50.5872 16.4216 50.6327 16.5125 50.7236C16.74 50.8601 17.0584 51.0421 17.3314 51.2695C17.6498 51.4515 17.9683 51.6335 18.1957 51.7699C18.2867 51.8154 18.3777 51.8609 18.4687 51.9064C18.5142 51.9519 18.5597 51.9974 18.5597 51.9974L18.1048 52.7708Z" fill="#4F4F4F"/>
<path d="M6.95932 40.624C6.95932 40.624 7.00481 40.715 7.0503 40.8515C7.09579 40.988 7.23227 41.2154 7.32325 41.4429C7.55071 41.9433 7.91464 42.5802 8.27858 43.2171C8.50604 43.5355 8.68801 43.8539 8.86997 44.1724C9.05194 44.4453 9.23391 44.7183 9.37038 44.9457C9.55235 45.1732 9.68883 45.3552 9.77981 45.4917C9.87079 45.6281 9.91629 45.6736 9.91629 45.6736L9.18842 46.2195C9.18842 46.2195 9.14292 46.174 9.05194 46.0376C8.91546 45.9011 8.82448 45.6736 8.64251 45.4462C8.46055 45.2187 8.27858 44.9457 8.09661 44.6728C7.91464 44.3544 7.68719 44.0359 7.50522 43.7175C7.14128 43.0351 6.77735 42.3527 6.5044 41.8523C6.41341 41.5794 6.27694 41.3974 6.23145 41.2154C6.14046 41.0789 6.09497 40.988 6.09497 40.988L6.95932 40.624Z" fill="#4F4F4F"/>
<path d="M5.95981 34.2554C5.95981 34.2554 5.95981 34.3009 5.95981 34.3918C6.0053 34.4828 6.0053 34.5738 6.05079 34.7103C6.09629 34.9832 6.18727 35.3017 6.23276 35.6656C6.32375 35.9841 6.41473 36.348 6.46022 36.6209C6.5512 36.8484 6.5967 37.0304 6.5967 37.0304L4.82251 37.5308C4.82251 37.5308 4.77702 37.3488 4.73153 37.0759C4.64055 36.8029 4.54956 36.439 4.45858 36.075C4.3676 35.7111 4.3221 35.3017 4.23112 35.0287C4.23112 34.8923 4.18563 34.8013 4.18563 34.7103C4.18563 34.6193 4.14014 34.5738 4.14014 34.5738L5.95981 34.2554Z" fill="#4F4F4F"/>
<path d="M4.86866 27.1133C4.86866 27.1133 4.82317 27.2952 4.82317 27.5682C4.77768 27.8412 4.73218 28.2051 4.73218 28.569C4.73218 28.933 4.68669 29.2969 4.68669 29.5698C4.68669 29.8428 4.68669 30.0248 4.68669 30.0248H3.77686C3.77686 30.0248 3.77686 29.8428 3.77686 29.5698C3.77686 29.2514 3.77686 28.8875 3.82235 28.5235C3.82235 28.1141 3.86784 27.7502 3.91333 27.4772C3.91333 27.1588 3.95882 26.9768 3.95882 26.9768L4.86866 27.1133Z" fill="#4F4F4F"/>
<path d="M21.2449 59.2303C21.2449 59.2303 21.9273 59.4123 22.5641 59.5942C23.201 59.7762 23.8834 59.9127 23.8834 59.9127L24.1564 58.6389C24.1564 58.6389 23.5195 58.457 22.9281 58.3205C22.2912 58.1385 21.6543 57.9565 21.6543 57.9565L21.2449 59.2303Z" fill="#4F4F4F"/>
<path d="M16.2869 57.0922C16.2869 57.0922 16.4233 57.1832 16.6508 57.3197C16.7873 57.3652 16.8783 57.4107 17.0602 57.5016C17.1967 57.5471 17.3332 57.6381 17.4697 57.7291C17.7881 57.8656 18.1065 58.002 18.334 58.093C18.4705 58.1385 18.5615 58.184 18.6069 58.2295C18.6979 58.2295 18.7434 58.275 18.7434 58.275L19.2438 57.0467C19.2438 57.0467 19.1983 57.0012 19.1529 57.0012C19.0619 56.9557 18.9709 56.9102 18.8799 56.8648C18.6524 56.7738 18.334 56.6373 18.061 56.5008C17.9246 56.4553 17.7881 56.3643 17.6516 56.3189C17.5151 56.2279 17.3787 56.1824 17.2877 56.0914C17.0602 56.0004 16.9238 55.9094 16.9238 55.9094L16.2869 57.0922Z" fill="#4F4F4F"/>
<path d="M11.7363 54.1807C11.7363 54.1807 11.8728 54.2717 12.1003 54.4081C12.2822 54.5901 12.5552 54.7721 12.8281 54.954C12.9646 55.045 13.1011 55.1815 13.2376 55.2725C13.374 55.3635 13.5105 55.409 13.6015 55.4999C13.829 55.6364 13.9654 55.7274 13.9654 55.7274L14.6933 54.5901C14.6933 54.5901 14.5568 54.5446 14.3294 54.4081C14.2384 54.3171 14.1019 54.2262 14.0109 54.1807C13.8744 54.0897 13.738 53.9987 13.6015 53.8622C13.3285 53.6803 13.1011 53.4983 12.8736 53.3618C12.6917 53.2253 12.5552 53.0889 12.5552 53.0889L11.7363 54.1807Z" fill="#4F4F4F"/>
<path d="M7.77881 50.4505C7.77881 50.4505 8.23373 50.9509 8.73414 51.4513C9.18906 51.9518 9.68947 52.4067 9.68947 52.4067L10.5993 51.4059C10.5993 51.4059 10.1444 50.9964 9.68947 50.496C9.23455 50.0411 8.77963 49.5862 8.77963 49.5862L7.77881 50.4505Z" fill="#4F4F4F"/>
<path d="M4.54932 46.1287C4.54932 46.1287 4.6403 46.2652 4.77678 46.4927C4.86776 46.5837 4.91325 46.7201 5.00423 46.8566C5.09522 46.9931 5.1862 47.1296 5.27719 47.266C5.50464 47.539 5.68661 47.8119 5.82309 48.0394C5.91407 48.1304 5.95956 48.2214 6.00506 48.2669C6.05055 48.3124 6.09604 48.3578 6.09604 48.3578L7.14235 47.539C7.14235 47.539 7.14235 47.539 7.09686 47.4935C7.05137 47.4025 6.96038 47.357 6.91489 47.2206C6.77842 47.0386 6.59645 46.7656 6.41448 46.4927C6.3235 46.3562 6.23251 46.2197 6.14153 46.1287C6.05055 45.9923 5.95956 45.8558 5.91407 45.7648C5.7776 45.5374 5.68661 45.4009 5.68661 45.4009L4.54932 46.1287Z" fill="#4F4F4F"/>
<path d="M2.13745 41.2612C2.13745 41.2612 2.13745 41.3066 2.18294 41.3976C2.18294 41.4431 2.22843 41.5341 2.27393 41.6706C2.4104 41.898 2.54688 42.2165 2.63786 42.5349C2.77434 42.8079 2.9563 43.1263 3.04729 43.3538C3.18376 43.5812 3.22926 43.7632 3.22926 43.7632L4.41204 43.1263C4.41204 43.1263 4.36655 42.9898 4.27557 42.7624C4.13909 42.5804 4.00262 42.262 3.86614 41.989C3.72967 41.6706 3.63868 41.3976 3.5477 41.1702C3.50221 41.0337 3.45671 40.9427 3.41122 40.8972C3.41122 40.8062 3.36573 40.7607 3.36573 40.7607L2.13745 41.2612Z" fill="#4F4F4F"/>
<path d="M0.591797 36.0749C0.591797 36.0749 0.637289 36.2568 0.682781 36.5298C0.728272 36.6208 0.728272 36.8027 0.773764 36.9392C0.819256 37.0757 0.864748 37.2577 0.91024 37.3941C1.00122 37.7581 1.09221 38.0765 1.1377 38.304C1.18319 38.4404 1.18319 38.5314 1.22868 38.6224C1.22868 38.6679 1.27417 38.7134 1.27417 38.7134L2.54795 38.3495C2.54795 38.3495 2.54795 38.304 2.50245 38.213C2.50245 38.1675 2.45696 38.0765 2.41147 37.94C2.36598 37.7126 2.27499 37.3941 2.18401 37.0757C2.13852 36.9392 2.13852 36.7572 2.09303 36.6208C2.04754 36.4843 2.00204 36.3478 2.00204 36.2113C1.95655 35.9839 1.91106 35.8474 1.91106 35.8474L0.591797 36.0749Z" fill="#4F4F4F"/>
<path d="M0 30.7069C0 30.7069 0 30.7524 0 30.8433C0 30.8888 0 31.0253 0 31.1163C0.0454918 31.3892 0.0454918 31.7077 0.0454918 32.0716C0.0909837 32.3901 0.136476 32.754 0.136476 32.9815C0.181967 33.2544 0.181967 33.4364 0.181967 33.4364L1.50123 33.2544C1.50123 33.2544 1.50123 33.1179 1.45574 32.845C1.45574 32.6175 1.41025 32.2991 1.41025 31.9806C1.36476 31.6622 1.36476 31.3438 1.36476 31.0708C1.36476 30.9798 1.31926 30.8433 1.31926 30.7979C1.31926 30.7069 1.31926 30.6614 1.31926 30.6614L0 30.7069Z" fill="#4F4F4F"/>
<path d="M0.364097 25.2935C0.364097 25.2935 0.318605 25.4754 0.318605 25.7029C0.273113 25.9758 0.227622 26.2943 0.18213 26.6582C0.136638 26.9767 0.136638 27.3406 0.0911461 27.568C0.0456543 27.841 0.0456543 27.9775 0.0456543 27.9775L1.41041 28.0685C1.41041 28.0685 1.41041 27.932 1.41041 27.7045C1.4559 27.4316 1.50139 27.1131 1.50139 26.7947C1.54688 26.4762 1.59238 26.1578 1.63787 25.9303C1.63787 25.6574 1.68336 25.5209 1.68336 25.5209L0.364097 25.2935Z" fill="#4F4F4F"/>
<path d="M1.68279 20.0618C1.68279 20.0618 1.63729 20.1982 1.54631 20.4712C1.45533 20.6987 1.36434 21.0171 1.27336 21.3355C1.18237 21.654 1.0459 21.9724 1.00041 22.2454C0.954916 22.4728 0.909424 22.6548 0.909424 22.6548L2.1832 22.9732C2.1832 22.9732 2.22869 22.7913 2.27418 22.5638C2.36516 22.3364 2.45615 22.0179 2.54713 21.6995C2.63811 21.4265 2.7291 21.1081 2.82008 20.8806C2.86557 20.6532 2.91106 20.4712 2.91106 20.4712L1.68279 20.0618Z" fill="#4F4F4F"/>
<path d="M3.86638 15.1035C3.86638 15.1035 3.86638 15.149 3.82089 15.24C3.7754 15.2855 3.72991 15.3765 3.68441 15.4675C3.54794 15.6949 3.41146 16.0134 3.2295 16.3318C3.09302 16.6047 2.95654 16.9232 2.82007 17.1506C2.72909 17.3781 2.68359 17.5601 2.68359 17.5601L3.86638 18.0605C3.86638 18.0605 3.95737 17.924 4.04835 17.6966C4.13933 17.5146 4.27581 17.1961 4.41228 16.9232C4.59425 16.6047 4.73073 16.3318 4.8672 16.1043C4.91269 16.0134 4.95819 15.9224 5.00368 15.8769C5.00368 15.7859 5.04917 15.7859 5.04917 15.7859L3.86638 15.1035Z" fill="#4F4F4F"/>
<path d="M6.91578 10.645C6.91578 10.645 6.8248 10.7815 6.64283 10.9635C6.50636 11.1909 6.2789 11.4184 6.09693 11.6913C5.86947 11.9643 5.6875 12.2827 5.55103 12.4647C5.36906 12.6922 5.27808 12.8286 5.27808 12.8286L6.41537 13.5565C6.41537 13.5565 6.46086 13.42 6.64283 13.2381C6.77931 13.0561 6.96127 12.7831 7.14324 12.5102C7.32521 12.2372 7.55267 12.0098 7.68914 11.7823C7.82562 11.6003 7.96209 11.5094 7.96209 11.5094L6.91578 10.645Z" fill="#4F4F4F"/>
<path d="M10.69 6.77832C10.69 6.77832 10.5536 6.8693 10.3716 7.05127C10.1896 7.18775 9.91667 7.4607 9.68922 7.68816C9.41626 7.91562 9.18881 8.14308 9.00684 8.32504C8.82487 8.50701 8.73389 8.64349 8.73389 8.64349L9.68922 9.55332C9.68922 9.55332 9.7802 9.41685 9.96217 9.28037C10.0986 9.0984 10.3716 8.87094 10.5991 8.64349C10.8265 8.41603 11.054 8.18857 11.2359 8.05209C11.4179 7.87012 11.5544 7.77914 11.5544 7.77914L10.69 6.77832Z" fill="#4F4F4F"/>
<path d="M15.1032 3.59375C15.1032 3.59375 14.5118 3.95768 13.9659 4.32162C13.6475 4.50359 13.3745 4.68555 13.1925 4.86752C12.9651 5.004 12.8286 5.09498 12.8286 5.09498L13.602 6.18678C13.602 6.18678 13.7385 6.0958 13.9204 5.95933C14.1479 5.82285 14.4208 5.64088 14.6938 5.45892C15.2397 5.09498 15.7856 4.77654 15.7856 4.77654L15.1032 3.59375Z" fill="#4F4F4F"/>
<path d="M19.9715 1.31934C19.9715 1.31934 19.835 1.36483 19.6075 1.45581C19.3346 1.5468 19.0616 1.68327 18.7432 1.77425C18.4247 1.91073 18.1063 2.04721 17.8788 2.18368C17.6514 2.27466 17.5149 2.36565 17.5149 2.36565L18.0608 3.54844C18.0608 3.54844 18.1973 3.50294 18.4247 3.36647C18.6522 3.27548 18.9706 3.13901 19.2436 3.04803C19.562 2.91155 19.835 2.77507 20.0624 2.68409C20.2899 2.59311 20.4719 2.54762 20.4719 2.54762L19.9715 1.31934Z" fill="#4F4F4F"/>
<path d="M24.5206 0L23.8837 0.136476C23.2013 0.318443 22.5645 0.454918 22.5645 0.454918L22.9284 1.77418C22.9284 1.77418 23.5198 1.59221 24.1567 1.45574L24.5206 1.36476V0Z" fill="#4F4F4F"/>
<path d="M23.9744 50.7689L24.5203 50.9054V49.5406L24.3838 49.4951L23.9744 50.7689Z" fill="#4F4F4F"/>
<path d="M20.4246 49.2677C20.4246 49.2677 20.561 49.3132 20.6975 49.4042C20.7885 49.4497 20.8795 49.4952 20.9705 49.5407C21.0614 49.5862 21.1979 49.6317 21.2889 49.6772C21.5164 49.7682 21.7438 49.9046 21.8803 49.9501C21.9713 49.9956 22.0623 50.0411 22.1078 50.0411C22.1533 50.0866 22.1987 50.0866 22.1987 50.0866L22.6992 48.8583C22.6992 48.8583 22.6537 48.8583 22.6082 48.8128C22.5627 48.8128 22.5172 48.7673 22.4262 48.7218C22.2897 48.6764 22.0623 48.5854 21.8803 48.4944C21.7893 48.4489 21.6528 48.4034 21.5619 48.3579C21.4709 48.3124 21.3799 48.2669 21.3344 48.2214C21.1524 48.1305 21.0614 48.085 21.0614 48.085L20.4246 49.2677Z" fill="#4F4F4F"/>
<path d="M17.2419 47.175C17.2419 47.175 17.3329 47.2205 17.4694 47.3569C17.6059 47.4479 17.7878 47.5844 17.9698 47.7209C18.1063 47.8119 18.1973 47.8574 18.2883 47.9483C18.3792 47.9938 18.4702 48.0848 18.5157 48.1303C18.6977 48.2213 18.7887 48.2668 18.7887 48.2668L19.5165 47.175C19.5165 47.175 19.4256 47.084 19.2891 46.993C19.1981 46.9475 19.1071 46.902 19.0161 46.8565C18.9706 46.7655 18.8796 46.7201 18.7887 46.6291C18.6067 46.5381 18.3792 46.4016 18.2428 46.2651C18.1518 46.1742 18.0608 46.1287 18.0608 46.1287L17.2419 47.175Z" fill="#4F4F4F"/>
<path d="M12.1021 41.4431C12.1021 41.4431 12.193 41.5796 12.284 41.7161C12.3295 41.8071 12.375 41.898 12.4205 41.989C12.5115 42.08 12.557 42.171 12.648 42.262C12.7844 42.4439 12.9209 42.6714 13.0119 42.8079C13.0574 42.8989 13.1029 42.9444 13.1484 42.9898C13.1939 43.0353 13.1939 43.0353 13.1939 43.0353L14.2857 42.262C14.2857 42.262 14.2402 42.2165 14.2402 42.171C14.1947 42.171 14.1492 42.08 14.1037 42.0345C14.0127 41.898 13.8762 41.7161 13.7398 41.5341C13.6943 41.4431 13.6033 41.3066 13.5578 41.2612C13.5123 41.1702 13.4668 41.0792 13.4213 40.9882C13.3303 40.8517 13.2393 40.7607 13.2393 40.7607L12.1021 41.4431Z" fill="#4F4F4F"/>
<path d="M10.418 38.0312C10.418 38.0312 10.418 38.0312 10.418 38.0767C10.4635 38.1676 10.4635 38.2131 10.509 38.3041C10.5999 38.4406 10.6909 38.6681 10.7819 38.8955C10.8729 39.123 10.9639 39.3504 11.0549 39.4869C11.1458 39.6689 11.1913 39.7599 11.1913 39.7599L12.3741 39.1685C12.3741 39.1685 12.3286 39.0775 12.2376 38.941C12.1922 38.759 12.0557 38.5771 12.0102 38.3496C11.9192 38.1676 11.8282 37.9402 11.7372 37.8037C11.7372 37.7127 11.6917 37.6672 11.6917 37.6217C11.6462 37.5763 11.6462 37.5308 11.6462 37.5308L10.418 38.0312Z" fill="#4F4F4F"/>
<path d="M9.32568 34.3464C9.32568 34.3464 9.32568 34.4374 9.37118 34.6194C9.37118 34.7104 9.41667 34.8014 9.41667 34.9378C9.46216 35.0288 9.50765 35.1653 9.50765 35.2563C9.59863 35.4837 9.64413 35.7567 9.68962 35.8932C9.68962 35.9841 9.73511 36.0751 9.73511 36.1206C9.7806 36.1661 9.7806 36.2116 9.7806 36.2116L11.0544 35.8022C11.0544 35.8022 11.0544 35.8022 11.0544 35.7567C11.0089 35.7112 11.0089 35.6202 10.9634 35.5292C10.9179 35.3927 10.8724 35.1653 10.8269 34.9378C10.7814 34.8468 10.7814 34.7104 10.7359 34.6194C10.6904 34.5284 10.6904 34.4374 10.6904 34.3464C10.6449 34.1645 10.5995 34.0735 10.5995 34.0735L9.32568 34.3464Z" fill="#4F4F4F"/>
<path d="M11.6456 19.4248C11.6456 19.4248 11.6001 19.4703 11.6001 19.5158C11.5546 19.5613 11.5546 19.6068 11.5091 19.6978C11.4181 19.8797 11.2817 20.0617 11.1907 20.2891C11.0542 20.5166 10.9632 20.7441 10.9177 20.8805C10.8267 21.0625 10.7812 21.1535 10.7812 21.1535L12.0095 21.6994C12.0095 21.6994 12.055 21.6084 12.1005 21.4264C12.1915 21.29 12.2825 21.108 12.3735 20.8805C12.4644 20.6986 12.6009 20.4711 12.6464 20.3346C12.6919 20.2437 12.7374 20.1982 12.7829 20.1527C12.7829 20.1072 12.7829 20.1072 12.7829 20.1072L11.6456 19.4248Z" fill="#4F4F4F"/>
<path d="M13.783 16.2407C13.783 16.2407 13.7376 16.3317 13.6011 16.5137C13.5101 16.6501 13.3281 16.8321 13.1917 17.0141C13.0552 17.1961 12.9187 17.4235 12.8277 17.56C12.6912 17.6965 12.6458 17.7874 12.6458 17.7874L13.7376 18.5608C13.7376 18.5608 13.8285 18.4698 13.9195 18.3333C14.0105 18.1969 14.147 18.0149 14.2835 17.8329C14.4199 17.6055 14.5564 17.469 14.6474 17.3325C14.7384 17.1961 14.8294 17.1051 14.8294 17.1051L13.783 16.2407Z" fill="#4F4F4F"/>
<path d="M24.5194 10.8271C23.4731 11.1911 22.3813 11.6005 21.335 12.1464C21.153 12.2374 20.971 12.3739 20.7436 12.4649L20.4706 12.6468L20.1977 12.8288C19.9702 12.9198 19.7882 13.0562 19.6063 13.1472C19.4243 13.2837 19.2423 13.4202 19.0604 13.5567L18.7874 13.7386L18.5145 13.9661C18.3325 14.1026 18.1505 14.239 17.9686 14.3755C17.6046 14.694 17.2407 14.9669 16.9223 15.2853L16.6493 15.5128L16.5128 15.6493L16.4219 15.7858C16.2399 15.9222 16.1034 16.1042 15.9214 16.2862C15.7395 16.4226 15.603 16.6046 15.4665 16.7866L15.2391 17.0595L15.0116 17.3325C14.4202 18.0604 13.8743 18.8337 13.3739 19.6526C12.3731 21.2903 11.6452 23.1099 11.1448 24.9751C10.6444 26.8403 10.4169 28.8419 10.5079 30.7981L10.5534 31.5259L10.5989 32.2538C10.6444 32.5268 10.6899 32.7542 10.7354 32.9817L10.7809 33.3456V33.5276L10.8264 33.7095L10.9628 34.4374C11.0538 34.7104 11.0993 34.9378 11.1448 35.1653L11.2358 35.5292L11.3723 35.8932C11.4632 36.1206 11.5087 36.3481 11.5997 36.5755C11.9182 37.5309 12.3276 38.4407 12.737 39.305C13.2374 40.1694 13.7378 41.0337 14.2837 41.8526C14.8751 42.6259 15.512 43.3993 16.1944 44.0817C16.8768 44.7641 17.6046 45.4464 18.378 46.0378C19.1514 46.6292 19.9702 47.1296 20.8346 47.63C21.6534 48.085 22.5178 48.4944 23.4276 48.8583C23.6551 48.9493 23.8825 48.9948 24.11 49.0858L24.4284 49.2223H24.5194V48.9948L24.1555 48.8583C23.928 48.7673 23.7005 48.7219 23.5186 48.6309C22.6087 48.2669 21.7444 47.8575 20.9255 47.4026C20.1067 46.9477 19.2878 46.4018 18.5145 45.8559C17.7866 45.2645 17.0587 44.6276 16.3764 43.8997C15.694 43.2173 15.0571 42.4895 14.5112 41.7161C13.9198 40.8973 13.4194 40.0784 12.9645 39.2141C12.5096 38.3497 12.1456 37.4399 11.8272 36.53C11.7362 36.3026 11.6907 36.0296 11.5997 35.8022L11.4632 35.4837L11.3723 35.1198C11.3268 34.8923 11.2813 34.6194 11.2358 34.3919L11.0538 33.6641V33.4821L11.0083 33.3001L10.9628 32.9817C10.9173 32.7087 10.8718 32.4813 10.8718 32.2538L10.7809 31.5259L10.7354 30.7981C10.6899 28.8419 10.8718 26.8858 11.3723 25.0206C11.8727 23.1554 12.6005 21.3813 13.5559 19.789C14.0563 18.9702 14.6022 18.1968 15.1936 17.469L15.421 17.196L15.6485 16.9685C15.785 16.7866 15.9214 16.6046 16.1034 16.4226C16.2399 16.2862 16.4219 16.1042 16.5583 15.9222L16.6948 15.8313L16.8313 15.6948L17.0587 15.4673C17.3772 15.1489 17.7411 14.8759 18.1051 14.5575C18.287 14.421 18.469 14.2845 18.651 14.1481L18.9239 13.9206L19.1969 13.7386C19.3788 13.6022 19.5608 13.5112 19.7428 13.3747C19.9247 13.2382 20.1067 13.1472 20.2887 13.0108L20.6071 12.8288L20.8801 12.6923C21.062 12.5558 21.244 12.4649 21.4714 12.3739C22.4723 11.828 23.5186 11.4185 24.5194 11.1001V10.8271Z" fill="#4F4F4F"/>
<path d="M24.5205 52.2247C24.202 52.1338 23.8381 52.0428 23.4742 51.9063C22.2004 51.4969 20.6992 50.86 19.1069 49.9501C18.8795 49.8137 18.6975 49.7227 18.4701 49.5862C18.2881 49.4497 18.0606 49.3133 17.8787 49.1768C17.6512 49.0403 17.4692 48.9038 17.2418 48.7674C17.0598 48.5854 16.8323 48.4489 16.6049 48.3124C15.786 47.6756 14.9672 46.9477 14.1483 46.1288C12.5561 44.4911 11.0549 42.444 9.91759 40.0784C9.37169 38.8956 8.87128 37.6674 8.50734 36.3481C8.14341 34.9833 7.87046 33.6186 7.73398 32.2083C7.46103 29.3423 7.73398 26.3399 8.59833 23.4739C9.41718 20.5624 10.8729 17.8329 12.8291 15.4673C14.7397 13.1018 17.1508 11.1001 19.7893 9.68987C21.336 8.91651 22.9283 8.27963 24.5205 7.82471V8.82553C23.1557 9.18946 21.791 9.73536 20.4717 10.4177C20.2442 10.5542 20.0168 10.6452 19.8348 10.7817L19.5164 10.9636L19.1979 11.1456C18.9705 11.2821 18.743 11.4186 18.561 11.555C18.3336 11.6915 18.1516 11.828 17.9242 11.9645L17.6057 12.1919L17.3328 12.4194C17.1508 12.5559 16.9233 12.6923 16.7414 12.8743C16.3319 13.1927 15.968 13.5112 15.6041 13.8751L15.3311 14.1481L15.1946 14.2391L15.0582 14.421C14.8762 14.603 14.6942 14.785 14.5123 14.9669C14.3303 15.1489 14.1483 15.3309 14.0119 15.5128L13.7389 15.8313L13.5114 16.1042C12.8291 16.9231 12.2377 17.7874 11.7373 18.6518C10.6455 20.4714 9.82661 22.4276 9.2807 24.4747C8.7348 26.5673 8.50734 28.7055 8.59833 30.8436V31.6624L8.68931 32.4813C8.7348 32.7542 8.78029 33.0272 8.82578 33.3001L8.87128 33.6641L8.91677 33.8915V34.0735L9.09874 34.8923C9.14423 35.1198 9.23521 35.3928 9.2807 35.6657L9.41718 36.0751L9.50816 36.4391C9.59915 36.712 9.69013 36.985 9.78111 37.2124C10.145 38.2587 10.5545 39.2596 11.0549 40.2149C11.5553 41.1702 12.1012 42.0801 12.7381 42.9444C13.375 43.8542 14.0573 44.6731 14.8307 45.4465C15.5586 46.1743 16.3774 46.9022 17.1963 47.5846C18.0606 48.2215 18.925 48.8129 19.8803 49.3133C20.7901 49.8137 21.7455 50.2686 22.7008 50.6325C22.9737 50.7235 23.2012 50.8145 23.4742 50.9055L23.8381 51.042L24.202 51.1329C24.293 51.1784 24.4295 51.2239 24.5205 51.2694V52.2247Z" fill="#4F4F4F"/>
<path d="M24.5446 0.0908203H24.2017V59.9999H24.5446V0.0908203Z" fill="#4F4F4F"/>
<path d="M24.2029 37.7124C23.93 37.7124 23.657 37.6669 23.3841 37.6214C23.2021 37.5759 23.0656 37.394 23.1111 37.212C23.1566 37.03 23.3386 36.8936 23.5205 36.8936C23.748 36.939 23.9755 36.9845 24.2029 36.9845V37.7124Z" fill="#4F4F4F"/>
<path d="M24.201 23.3827C22.1084 23.5191 20.1523 24.6564 18.9695 26.4761C18.833 26.6581 18.6056 26.7036 18.4691 26.6126C18.2871 26.4761 18.2416 26.2486 18.3326 26.1122C19.6519 24.065 21.8355 22.8368 24.201 22.6548V23.3827Z" fill="#4F4F4F"/>
<path d="M21.5633 36.5299C21.5179 36.5754 21.5179 36.6208 21.5179 36.6208C21.4269 36.8028 21.1994 36.8938 21.0174 36.7573C18.2424 35.2106 16.6957 32.0262 17.2416 28.8872C17.2871 28.7053 17.4691 28.5688 17.6965 28.6143C17.8785 28.6143 18.015 28.8417 17.9695 29.0237C17.4691 31.8897 18.8338 34.7557 21.3814 36.1659C21.5179 36.2114 21.5633 36.3934 21.5633 36.5299Z" fill="#4F4F4F"/>
<path d="M24.2026 36.2571C24.0206 36.2571 23.8386 36.2116 23.6567 36.2116C21.5185 35.8477 19.6989 34.3464 18.971 32.2993C18.88 32.1173 18.971 31.8899 19.153 31.8444C19.3804 31.7534 19.5624 31.8899 19.6534 32.0718C20.2903 33.846 21.8825 35.1653 23.7476 35.4837C23.8841 35.5292 24.0661 35.5292 24.2026 35.5747V36.2571Z" fill="#4F4F4F"/>
<path d="M21.199 25.976C21.1535 26.067 21.1535 26.158 21.0625 26.2035C20.1527 27.0224 19.6068 28.0687 19.3793 29.2515C19.3338 29.5244 19.2883 29.7974 19.2883 30.0248C19.2883 30.2523 19.1518 30.3887 18.9244 30.3887C18.7424 30.3887 18.5605 30.2068 18.6059 30.0248C18.6059 29.7064 18.6059 29.4334 18.6969 29.1605C18.9244 27.7957 19.5613 26.5674 20.6076 25.6576C20.7441 25.5211 20.9715 25.5666 21.108 25.7031C21.1535 25.7941 21.199 25.8851 21.199 25.976Z" fill="#4F4F4F"/>
<path d="M24.2013 24.8387C23.6554 24.8842 23.1095 25.0207 22.5636 25.2481C22.3816 25.2936 22.1997 25.2026 22.1087 25.0207C22.0632 24.8387 22.1087 24.6567 22.2907 24.5658C22.8821 24.3383 23.5189 24.1563 24.2013 24.1108V24.8387Z" fill="#4F4F4F"/>
<path d="M24.2015 26.2034C23.2917 26.3398 22.4728 26.7493 21.8359 27.3862C21.6994 27.5226 21.472 27.5226 21.3355 27.3862C21.199 27.2497 21.199 27.0222 21.3355 26.8858C22.1089 26.1124 23.1097 25.612 24.2015 25.521V26.2034Z" fill="#4F4F4F"/>
<path d="M24.2012 34.71C24.1102 34.8009 24.0193 34.8464 23.8828 34.8464C21.3352 34.3915 19.6066 31.935 20.0615 29.3874C20.0615 29.2054 20.107 29.069 20.1525 28.887C20.1979 28.705 20.4254 28.6141 20.6074 28.6595C20.7893 28.705 20.8803 28.9325 20.8348 29.1145C20.7893 29.2509 20.7893 29.3874 20.7439 29.4784C20.3799 31.662 21.8357 33.7546 24.0193 34.1186C24.0648 34.1186 24.1557 34.1641 24.2012 34.255V34.71Z" fill="#4F4F4F"/>
<path d="M23.2914 32.5266C23.2914 32.6176 23.2459 32.6631 23.2004 32.7086C23.1094 32.845 22.882 32.8905 22.7 32.7541C21.7447 32.0262 21.2898 30.8434 21.5172 29.6151C21.6537 28.8418 22.0631 28.1139 22.7 27.6135C22.8365 27.5225 23.0639 27.5225 23.2004 27.7045C23.3369 27.8409 23.2914 28.0684 23.1549 28.2049C22.6545 28.5688 22.2906 29.1147 22.1996 29.7516C22.0176 30.7069 22.3816 31.6168 23.1549 32.2081C23.2459 32.2991 23.2914 32.4356 23.2914 32.5266Z" fill="#4F4F4F"/>
<path d="M24.2015 33.209C24.2015 33.1635 24.156 33.118 24.156 33.118C24.156 33.027 24.156 32.9815 24.2015 32.936V33.209Z" fill="white"/>
</svg>
